<?xml version="1.0" encoding="utf-8"?>
<!-- Generator: Adobe Illustrator 19.1.0, SVG Export Plug-In . SVG Version: 6.00 Build 0)  -->
<svg version="1.2" baseProfile="tiny" id="Layer_1" xmlns="http://www.w3.org/2000/svg" xmlns:xlink="http://www.w3.org/1999/xlink"
	 x="0px" y="0px" width="31.431px" height="46.483px" viewBox="0 0 31.431 46.483" xml:space="preserve">
	<path fill-rule="evenodd"
        d="M27.36,0.547c0,0 0,-0.001 -0.001,-0.001L17.182,0.546c3.997,3.952 6.869,9.205 6.685,15.305C23.543,26.688 17.689,37.333 4.234,38.788c-0.421,2.637 -1.041,5.206 -1.844,7.695c16.183,-0.85 29.041,-14.237 29.041,-30.633C31.432,10.281 29.948,5.053 27.36,0.547z"
        fill="#97BDDB"/>
    <path fill-rule="evenodd"
        d="M17.182,0.546h-1.422v-0.546h-15.76v0.335c0.182,-0.009 0.364,-0.016 0.553,-0.016c8.576,0 15.525,6.951 15.525,15.532c0,7.812 -5.775,14.257 -13.287,15.345c0.036,0.001 0.071,0.002 0.107,0.002c0.439,0.007 0.875,0.012 1.314,0.016c0.114,0.539 0.334,1.048 0.645,1.495c-0.085,2.061 -0.304,4.087 -0.622,6.079c13.454,-1.455 19.308,-12.1 19.633,-22.937C24.052,9.751 21.179,4.498 17.182,0.546z"
        fill="#76A3C1"/>
</svg>
