<?xml version="1.0" encoding="utf-8"?>
<!-- Generator: Adobe Illustrator 19.1.0, SVG Export Plug-In . SVG Version: 6.00 Build 0)  -->
<svg version="1.2" baseProfile="tiny" id="Layer_1" xmlns="http://www.w3.org/2000/svg" xmlns:xlink="http://www.w3.org/1999/xlink"
	 x="0px" y="0px" width="12.401px" height="11.644px" viewBox="0 0 12.401 11.644" xml:space="preserve">
	<path fill-rule="evenodd"
        d="M12.401,5.823c0,3.215 -2.775,5.821 -6.201,5.821c-3.424,0 -6.199,-2.606 -6.199,-5.821c0,-3.216 2.775,-5.823 6.199,-5.823C9.626,0 12.401,2.607 12.401,5.823L12.401,5.823z"
        fill="#9B7D6D"/>
    <path fill-rule="evenodd"
        d="M8.788,5.739c0,1.342 -1.156,2.43 -2.588,2.43c-1.428,0 -2.586,-1.088 -2.586,-2.43c0,-1.342 1.158,-2.43 2.586,-2.43C7.632,3.309 8.788,4.397 8.788,5.739L8.788,5.739z"
        fill="#231E1F"/>
    <path fill-rule="evenodd"
        d="M6.2,0c-0.018,0 -0.037,0 -0.057,0.001c-3.369,0.029 -6.096,2.581 -6.143,5.741h3.613c0,-0.001 0,-0.002 0,-0.003c0,-1.342 1.158,-2.43 2.586,-2.43c1.432,0 2.588,1.088 2.588,2.43c0,0 0,0.002 0,0.003h3.613C12.354,2.563 9.596,0 6.2,0L6.2,0z"
        fill="#B8A297"/>
    <path fill-rule="evenodd"
        d="M6.2,3.309c-1.428,0 -2.586,1.088 -2.586,2.43c0,0 0,0.002 0,0.003h5.174c0,-0.001 0,-0.002 0,-0.003C8.788,4.397 7.632,3.309 6.2,3.309L6.2,3.309z"
        fill="#635F60"/>
</svg>
