<?xml version="1.0" encoding="utf-8"?>
<!-- Generator: Adobe Illustrator 19.1.0, SVG Export Plug-In . SVG Version: 6.00 Build 0)  -->
<svg version="1.2" baseProfile="tiny" id="Layer_1" xmlns="http://www.w3.org/2000/svg" xmlns:xlink="http://www.w3.org/1999/xlink"
	 x="0px" y="0px" width="60.879px" height="12.724px" viewBox="0 0 60.879 12.724" xml:space="preserve">
	<path fill-rule="evenodd"
        d="M0,0.002v6.983c0.02,-0.001 0.039,-0.001 0.057,-0.001c0.213,0 0.424,0.01 0.632,0.03c0.07,0.007 0.137,0.021 0.206,0.029c0.136,0.017 0.273,0.033 0.407,0.058c0.092,0.018 0.181,0.043 0.271,0.065c0.107,0.025 0.216,0.047 0.321,0.077c0.097,0.028 0.19,0.064 0.284,0.097c0.091,0.031 0.185,0.058 0.275,0.094c0.002,0.001 0.004,0.002 0.006,0.003c0.246,0.097 0.481,0.213 0.71,0.338c0.056,0.031 0.111,0.062 0.166,0.094c0.209,0.123 0.412,0.254 0.603,0.398c0.015,0.011 0.031,0.021 0.047,0.033c0.203,0.156 0.392,0.327 0.573,0.506c0.044,0.043 0.086,0.088 0.128,0.132c0.159,0.167 0.309,0.341 0.446,0.525c0.016,0.022 0.034,0.042 0.05,0.063c0.147,0.203 0.278,0.416 0.397,0.636c0.03,0.055 0.057,0.111 0.086,0.167c0.099,0.197 0.188,0.4 0.263,0.608c0.013,0.035 0.028,0.067 0.04,0.102c0.08,0.236 0.141,0.48 0.188,0.728c0.012,0.065 0.022,0.13 0.032,0.196c0.033,0.215 0.055,0.433 0.062,0.655c0.001,0.036 0.01,0.07 0.01,0.106h50.9c1.033,-1.662 1.875,-3.43 2.496,-5.273c0.79,-2.375 1.223,-4.871 1.223,-7.451L0,0L0,0.002z"
        fill="#F0AC33"/>
</svg>
