<?xml version="1.0" encoding="utf-8"?>
<!-- Generator: Adobe Illustrator 19.1.0, SVG Export Plug-In . SVG Version: 6.00 Build 0)  -->
<svg version="1.2" baseProfile="tiny" id="Layer_1" xmlns="http://www.w3.org/2000/svg" xmlns:xlink="http://www.w3.org/1999/xlink"
	 x="0px" y="0px" width="189.111px" height="124.474px" viewBox="0 0 189.111 124.474" xml:space="preserve">
    <path fill-rule="evenodd" fill="#EA9500" d="M61.34,123.82c-0.17,-0.32 -0.28,-0.68 -0.28,-1.06v-17.15c0,-1.22 1,-2.22 2.22,-2.22c1.23,0 2.22,1 2.22,2.22v17.15c0,0.39 -0.11,0.74 -0.28,1.06L61.34,123.82L61.34,123.82z"/>
    <path fill-rule="evenodd" fill="#EA9500" d="M61.06,124.47c0.01,-3.29 2.69,-5.96 5.98,-5.96s5.97,2.66 5.98,5.96L61.06,124.47z"/>
    <path fill-rule="evenodd" fill="#76A3C1" d="M143.71,43.22c0,16.94 -13.73,30.68 -30.68,30.68c-0.19,0 -0.37,-0.01 -0.55,-0.01L112.47,58.73c0.18,0.01 0.36,0.02 0.55,0.02c8.58,0 15.52,-6.95 15.52,-15.52c0,-8.58 -6.95,-15.53 -15.52,-15.53c-0.19,0 -0.37,0.01 -0.55,0.02L112.47,12.55c0.18,0 0.36,-0.01 0.55,-0.01c1.48,0 2.93,0.11 4.35,0.31c1.65,0.23 3.26,0.59 4.81,1.09c2.12,0.66 4.15,1.55 6.05,2.63c0.89,0.52 1.77,1.07 2.61,1.67c3.57,2.56 6.58,5.86 8.79,9.68C142.22,32.42 143.71,37.65 143.71,43.22L143.71,43.22z"/>
    <path fill-rule="evenodd" fill="#97BDDB" d="M143.91,43.22c0,16.94 -13.73,30.68 -30.68,30.68c-0.19,0 -0.37,-0.01 -0.56,-0.01v-7.57c0.18,0.01 0.37,0.01 0.56,0.02c15.94,0.13 22.76,-11.38 23.11,-23.11c0.41,-13.68 -14.54,-23.12 -23.11,-23.12c-0.19,0 -0.37,0.01 -0.56,0.01L112.67,12.55c0.18,0 0.37,-0.01 0.56,-0.01c1.48,0 2.93,0.11 4.35,0.31c1.65,0.23 3.26,0.59 4.81,1.09c2.13,0.66 4.15,1.55 6.05,2.63c0.9,0.52 1.77,1.07 2.61,1.67c3.57,2.56 6.58,5.86 8.79,9.68C142.42,32.42 143.91,37.65 143.91,43.22L143.91,43.22z"/>
    <path fill-rule="evenodd" fill="#9B7D6D" d="M0,58.63c0,7.4 5.41,13.45 12.02,13.45h30.57c6.61,0 12.02,-6.05 12.02,-13.45v-0.37L0,58.26L0,58.63z"/>
    <path fill-rule="evenodd" fill="#97BDDB" d="M117.33,60.08c-1.14,27.64 -23.89,49.71 -51.79,49.71h-0.13C36.94,109.72 13.85,86.71 13.67,58.27h91.72c3.76,0.17 7.53,0.28 11.3,0.32C116.8,59.12 117.02,59.63 117.33,60.08L117.33,60.08z"/>
    <path fill-rule="evenodd" fill="#9B7D6D" d="M104.39,58.51C104.11,79.72 86.83,96.84 65.54,96.84h-0.11C44.11,96.78 26.84,79.57 26.69,58.26v-0.01h68.71c0.11,0 0.22,0.01 0.34,0.01C98.61,58.4 101.49,58.46 104.39,58.51L104.39,58.51z"/>
    <path fill-rule="evenodd" fill="#EA9500" d="M189.11,0.12c0,2.58 -0.43,5.08 -1.22,7.45c-0.62,1.84 -1.46,3.61 -2.5,5.27l-0.03,0.05c-5.59,8.92 -16.86,15.02 -29.85,15.02h-27.28L128.23,0.12L189.11,0.12L189.11,0.12z"/>
    <path fill-rule="evenodd" fill="#97BDDB" d="M128.23,0v27.37h-15.76L112.47,10.02c0,-5.53 4.49,-10.02 10.02,-10.02L128.23,0L128.23,0z"/>
    <path fill-rule="evenodd" fill="#9B7D6D" d="M134.49,12.93c0,3.21 -2.78,5.82 -6.2,5.82c-3.42,0 -6.2,-2.61 -6.2,-5.82c0,-3.22 2.78,-5.82 6.2,-5.82C131.72,7.1 134.49,9.71 134.49,12.93L134.49,12.93z"/>
    <path fill-rule="evenodd" fill="#231E1F" d="M130.88,12.84c0,1.34 -1.16,2.43 -2.59,2.43c-1.43,0 -2.59,-1.09 -2.59,-2.43s1.16,-2.43 2.59,-2.43C129.72,10.41 130.88,11.5 130.88,12.84L130.88,12.84z"/>
    <path fill-rule="evenodd" fill="#F0AC33" d="M189.11,0.12h-60.88v6.98c0.02,-0 0.04,-0 0.06,-0c3.4,0 6.15,2.56 6.2,5.74h50.9c1.03,-1.66 1.88,-3.43 2.5,-5.27C188.68,5.2 189.11,2.7 189.11,0.12L189.11,0.12z"/>
    <path fill-rule="evenodd" fill="#B5D1E5" d="M128.23,0h-5.74c-5.53,0 -10.02,4.48 -10.02,10.02v2.83h9.62c0.05,-3.16 2.77,-5.71 6.14,-5.74v-6.98L128.23,0L128.23,0z"/>
    <path fill-rule="evenodd" fill="#B8A297" d="M128.29,7.1c-0.02,0 -0.04,0 -0.06,0c-3.37,0.03 -6.1,2.58 -6.14,5.74h3.61c0,-0 0,-0 0,-0c0,-1.34 1.16,-2.43 2.59,-2.43c1.43,0 2.59,1.09 2.59,2.43c0,0 0,0 0,0h3.61C134.45,9.67 131.69,7.1 128.29,7.1L128.29,7.1z"/>
    <path fill-rule="evenodd" fill="#635F60" d="M128.29,10.41c-1.43,0 -2.59,1.09 -2.59,2.43c0,0 0,0 0,0h5.17c0,-0 0,-0 0,-0C130.88,11.5 129.72,10.41 128.29,10.41L128.29,10.41z"/>
    <path fill-rule="evenodd" fill="#B0CDE4" d="M105.39,58.26h-9.65c2.88,0.13 5.76,0.2 8.65,0.24C104.11,79.72 86.83,96.84 65.54,96.84v12.94c27.91,0 50.66,-22.07 51.79,-49.71c-0.31,-0.45 -0.53,-0.96 -0.64,-1.5c-0.44,-0 -0.88,-0.01 -1.31,-0.02C112.04,58.52 108.71,58.41 105.39,58.26L105.39,58.26z"/>
    <path fill-rule="evenodd" fill="#B39C90" d="M95.39,58.26L65.54,58.26L65.54,96.84c21.29,0 38.58,-17.38 38.85,-38.58c-2.89,-0.05 -5.78,0.14 -8.65,0.01l0,0C95.61,58.26 95.51,58.26 95.39,58.26L95.39,58.26z"/>
</svg>
