<?xml version="1.0" encoding="utf-8"?>
<!-- Generator: Adobe Illustrator 16.0.0, SVG Export Plug-In . SVG Version: 6.00 Build 0)  -->
<!DOCTYPE svg PUBLIC "-//W3C//DTD SVG 1.1//EN" "http://www.w3.org/Graphics/SVG/1.1/DTD/svg11.dtd">
<svg version="1.1" id="Layer_1" xmlns="http://www.w3.org/2000/svg" xmlns:xlink="http://www.w3.org/1999/xlink" x="0px" y="0px"
	 width="44.9px" height="43.9px" viewBox="0 0 44.9 43.9" enable-background="new 0 0 44.9 43.9" xml:space="preserve">
<path fill="#FF5B49" d="M0.1,12.5C10,13.2,13.4,19.3,16.8,26c2.9,5.7,2.7,13.5,2.7,17.4v0.5h13.2l-0.1-0.5
	c0-4.5,2.6-13.801-1.301-21.5C29,17.4,23.8,14.3,19.6,11.599C14.8,8.5,12.4,6.2,0.1,6.2V12.5z"/>
<path fill="#FF9926" d="M0,0v6.2C12.1,6.2,19.8,10.8,26.1,19.9c6.3,9,5.199,20.899,5.199,24H44.9c0-3.7-0.7-14.4-7.101-25.801
	C30.6,5.5,18.6,0,0,0z"/>
</svg>
