<?xml version="1.0" encoding="utf-8"?>
<!-- Generator: Adobe Illustrator 16.0.0, SVG Export Plug-In . SVG Version: 6.00 Build 0)  -->
<!DOCTYPE svg PUBLIC "-//W3C//DTD SVG 1.1//EN" "http://www.w3.org/Graphics/SVG/1.1/DTD/svg11.dtd">
<svg version="1.1" id="Layer_1" xmlns="http://www.w3.org/2000/svg" xmlns:xlink="http://www.w3.org/1999/xlink" x="0px" y="0px"
	 width="164.1px" height="118.9px" viewBox="0 0 164.1 118.9" enable-background="new 0 0 164.1 118.9" xml:space="preserve">
<path fill="#FF9926" d="M50.6,30.4c0,3.699-3,6.699-6.7,6.699H43.7c-3.7,0-6.7-3-6.7-6.699V11.7C37,8,40,5,43.7,5H43.9
	c3.7,0,6.7,3,6.7,6.7V30.4z"/>
<path fill="#D54243" d="M57.3,53.5V12.9C46.1,12.9,37,22,37,33.2S46.1,53.5,57.3,53.5z"/>
<rect x="61.3" y="77.7" fill="#FF5B49" width="12.3" height="35.399"/>
<path fill="#D54243" d="M73.6,113.099c0,3.2-2.6,5.801-5.8,5.801h-14c-3.2,0-5.8-2.601-5.8-5.801l0,0c0-3.199,2.6-5.8,5.8-5.8h14
	C71,107.3,73.6,109.9,73.6,113.099L73.6,113.099z"/>
<rect x="73.5" y="77.7" fill="#FF9926" width="12.3" height="35.399"/>
<path fill="#FF5B49" d="M85.8,113.099c0,3.2-2.6,5.801-5.8,5.801H66c-3.2,0-5.8-2.601-5.8-5.801l0,0c0-3.199,2.6-5.8,5.8-5.8h14
	C83.2,107.3,85.8,109.9,85.8,113.099L85.8,113.099z"/>
<rect x="124.1" y="77.7" fill="#FF5B49" width="12.3" height="35.399"/>
<path fill="#D54243" d="M136.4,113.099c0,3.2-2.6,5.801-5.8,5.801h-14c-3.2,0-5.8-2.601-5.8-5.801l0,0c0-3.199,2.6-5.8,5.8-5.8h14
	C133.8,107.3,136.4,109.9,136.4,113.099L136.4,113.099z"/>
<rect x="136.4" y="74.8" fill="#FF9926" width="12.301" height="38.3"/>
<path fill="#FF5B49" d="M148.7,113.099c0,3.2-2.601,5.801-5.801,5.801h-14c-3.199,0-5.8-2.601-5.8-5.801l0,0
	c0-3.199,2.601-5.8,5.8-5.8h14C146.1,107.3,148.7,109.9,148.7,113.099L148.7,113.099z"/>
<path fill="#D54243" d="M41.4,52.3C48,78.099,73,97.3,102.7,97.3c29.699,0,54.699-19.2,61.3-45C164.1,52.3,41.4,52.3,41.4,52.3z"/>
<path fill="#FF5B49" d="M67,52.3c6,12.3,19.8,21,35.8,21s29.8-8.7,35.8-21H67z"/>
<path fill="#D54243" d="M81.4,29.4c0,4.3-3.5,7.8-7.8,7.8h-0.2c-4.3,0-7.8-3.5-7.8-7.8V7.8c0-4.3,3.5-7.8,7.8-7.8h0.2
	c4.3,0,7.8,3.5,7.8,7.8V29.4L81.4,29.4z"/>
<path fill="#FF9926" d="M57.3,12.9v55.699c15.4,0,27.9-12.5,27.9-27.899C85.2,25.4,72.7,12.9,57.3,12.9z"/>
<path fill="#FF5B49" d="M78,35.099H4.7C4.7,55.3,21.1,71.8,41.4,71.8C61.7,71.8,78,55.4,78,35.099z"/>
<circle cx="75.3" cy="35.1" r="4.7"/>
<circle fill="#3D3D3D" cx="7.8" cy="31.9" r="7.8"/>
<path fill="#FF5B49" d="M119.3,20.9c9.9,0.699,13.3,6.8,16.7,13.5c2.899,5.699,2.7,13.5,2.7,17.399v0.5H151.9l-0.1-0.5
	c0-4.5,2.6-13.8-1.3-21.5c-2.3-4.5-7.5-7.6-11.7-10.3c-4.8-3.1-7.2-5.4-19.5-5.4V20.9z"/>
<path fill="#FF9926" d="M119.2,8.4v6.199c12.1,0,19.8,4.601,26.1,13.7c6.3,9,5.2,20.9,5.2,24h13.6c0-3.7-0.7-14.399-7.1-25.8
	C149.8,13.9,137.8,8.4,119.2,8.4z"/>
<circle fill="#FFFFFF" cx="75.3" cy="35.1" r="3.2"/>
</svg>
