<?xml version="1.0" encoding="utf-8"?>
<!-- Generator: Adobe Illustrator 16.0.0, SVG Export Plug-In . SVG Version: 6.00 Build 0)  -->
<!DOCTYPE svg PUBLIC "-//W3C//DTD SVG 1.1//EN" "http://www.w3.org/Graphics/SVG/1.1/DTD/svg11.dtd">
<svg version="1.1" id="Layer_1" xmlns="http://www.w3.org/2000/svg" xmlns:xlink="http://www.w3.org/1999/xlink" x="0px" y="0px"
	 width="48px" height="48px" viewBox="0 0 48 48" enable-background="new 0 0 48 48" xml:space="preserve">
<path fill="#1FA8CC" d="M14.7,24c0-2.601,1-4.9,2.699-6.601L7,7c-4.3,4.3-7,10.3-7,17c0,6.6,2.7,12.6,7,17L17.4,30.6
	C15.7,28.899,14.7,26.6,14.7,24L14.7,24z"/>
<path fill="#5ECCDC" d="M17.4,17.399C19.1,15.7,21.4,14.7,24,14.7c2.6,0,4.899,1,6.6,2.699L41,7c-4.3-4.3-10.4-7-17-7
	C17.4,0,11.4,2.7,7,7l0,0l0,0L17.4,17.399z"/>
<polygon fill="#5ECCDC" points="7.051,7.039 17.443,17.436 17.443,17.436 "/>
<path fill="#2F80B7" d="M33.3,24L33.3,24c0,2.6-1,4.899-2.7,6.6L41,41c4.3-4.3,7-10.3,7-17c0-6.601-2.7-12.601-7-17L30.6,17.399
	C32.2,19.1,33.3,21.399,33.3,24z"/>
<path fill="#5AA7CF" d="M41,41L30.6,30.6c-1.7,1.7-4,2.7-6.6,2.7c-2.601,0-4.9-1-6.601-2.7L7,41c4.3,4.3,10.3,7,17,7
	S36.6,45.3,41,41L41,41L41,41z"/>
<polygon fill="#5AA7CF" points="40.99,40.94 30.596,30.546 30.596,30.546 "/>
</svg>
