<?xml version="1.0" encoding="utf-8"?>
<!-- Generator: Adobe Illustrator 16.0.0, SVG Export Plug-In . SVG Version: 6.00 Build 0)  -->
<!DOCTYPE svg PUBLIC "-//W3C//DTD SVG 1.1//EN" "http://www.w3.org/Graphics/SVG/1.1/DTD/svg11.dtd">
<svg version="1.1" id="Layer_1" xmlns="http://www.w3.org/2000/svg" xmlns:xlink="http://www.w3.org/1999/xlink" x="0px" y="0px"
	 width="48px" height="48px" viewBox="0 0 48 48" enable-background="new 0 0 48 48" xml:space="preserve">
<path fill="#2F80B7" d="M33.3,24c0,2.6-1,4.899-2.7,6.6L41,41c4.3-4.3,7-10.4,7-17c0-6.601-2.7-12.601-7-17L30.6,17.399
	C32.199,19.1,33.3,21.399,33.3,24L33.3,24z"/>
<path fill="#5ECCDC" d="M23.9,14.7c2.6,0,4.9,1,6.6,2.699L40.9,7c-4.4-4.3-10.4-7-17-7s-12.6,2.7-17,7l10.4,10.399
	C19.1,15.7,21.4,14.7,23.9,14.7z"/>
<path fill="#1FA8CC" d="M17.4,17.399L7,7c-4.3,4.3-7,10.3-7,17s2.7,12.6,7,17l10.4-10.4c-1.7-1.7-2.7-4-2.7-6.6
	C14.6,21.399,15.7,19.1,17.4,17.399z"/>
<path fill="#5AA7CF" d="M17.4,30.6L7,41c4.3,4.3,10.3,7,17,7c6.6,0,12.6-2.7,17-7L30.6,30.6c-1.699,1.7-4,2.7-6.6,2.7
	C21.4,33.3,19.1,32.2,17.4,30.6z"/>
</svg>
