<?xml version="1.0" encoding="utf-8"?>
<!-- Generator: Adobe Illustrator 16.0.0, SVG Export Plug-In . SVG Version: 6.00 Build 0)  -->
<!DOCTYPE svg PUBLIC "-//W3C//DTD SVG 1.1//EN" "http://www.w3.org/Graphics/SVG/1.1/DTD/svg11.dtd">
<svg version="1.1" id="Layer_1" xmlns="http://www.w3.org/2000/svg" xmlns:xlink="http://www.w3.org/1999/xlink" x="0px" y="0px"
	 width="48.3px" height="95.1px" viewBox="0 0 48.3 95.1" enable-background="new 0 0 48.3 95.1" xml:space="preserve">
<path fill="#7B5F5E" d="M12.4,54.7c-0.1-0.101-0.1-0.101-0.2-0.2l-0.1-0.1l0.1,0.1C8,50.2,5.3,44.2,5.3,37.7
	c0-6.601,2.7-12.601,7-17c2.8-2.8,6.4-4.9,10.3-6.101L39.5,0H0v51.3c5.9,0,10.1,2,12.6,3.7C12.6,54.8,12.5,54.8,12.4,54.7L12.4,54.7
	L12.4,54.7L12.4,54.7z"/>
<path fill="#7B5F5E" d="M46.3,54.7L46.3,54.7L46.3,54.7L46.3,54.7L46.3,54.7L46.3,54.7L46.3,54.7L46.3,54.7L46.3,54.7L46.3,54.7
	c-4.4,4.399-10.4,7-17,7c-5.2,0-10.1-1.7-14-4.5L0,73.6v21.5h48.3V52.401C47.701,53.2,47,54,46.3,54.7z"/>
</svg>
