<?xml version="1.0" encoding="utf-8"?>
<!-- Generator: Adobe Illustrator 16.0.0, SVG Export Plug-In . SVG Version: 6.00 Build 0)  -->
<!DOCTYPE svg PUBLIC "-//W3C//DTD SVG 1.1//EN" "http://www.w3.org/Graphics/SVG/1.1/DTD/svg11.dtd">
<svg version="1.1" id="Layer_1" xmlns="http://www.w3.org/2000/svg" xmlns:xlink="http://www.w3.org/1999/xlink" x="0px" y="0px"
	 width="189.1px" height="124.5px" viewBox="0 0 189.1 124.5" enable-background="new 0 0 189.1 124.5" xml:space="preserve">
<path fill="#EA9500" d="M61.3,123.8c-0.2-0.3-0.3-0.7-0.3-1.1v-17.2c0-1.2,1-2.2,2.2-2.2c1.199,0,2.199,1,2.199,2.2v17.2
	c0,0.399-0.1,0.7-0.3,1.1H61.3L61.3,123.8z"/>
<path fill="#EA9500" d="M61.1,124.5c0-3.3,2.7-6,6-6s6,2.7,6,6H61.1z"/>
<path fill="#76A3C1" d="M143.7,43.2c0,16.899-13.7,30.7-30.7,30.7c-0.2,0-0.4,0-0.601,0V58.7c0.2,0,0.4,0,0.601,0
	c8.6,0,15.5-7,15.5-15.5c0-8.601-6.9-15.5-15.5-15.5c-0.2,0-0.4,0-0.601,0V12.5c0.2,0,0.4,0,0.601,0c1.5,0,2.899,0.1,4.3,0.3
	c1.7,0.2,3.3,0.601,4.8,1.101c2.101,0.699,4.2,1.5,6,2.6c0.9,0.5,1.8,1.1,2.601,1.7c3.6,2.6,6.6,5.899,8.8,9.7
	C142.2,32.4,143.7,37.7,143.7,43.2L143.7,43.2z"/>
<path fill="#97BDDB" d="M143.9,43.2c0,16.899-13.699,30.7-30.699,30.7c-0.2,0-0.4,0-0.601,0V66.3c0.2,0,0.4,0,0.601,0
	C129.1,66.4,136,54.9,136.3,43.2c0.4-13.7-14.5-23.101-23.1-23.101c-0.2,0-0.4,0-0.601,0v-7.6c0.2,0,0.4,0,0.601,0
	c1.5,0,2.899,0.1,4.3,0.3c1.7,0.2,3.3,0.601,4.8,1.101c2.1,0.699,4.2,1.5,6,2.6c0.9,0.5,1.8,1.1,2.6,1.7
	c3.601,2.6,6.601,5.899,8.801,9.7C142.4,32.4,143.9,37.7,143.9,43.2L143.9,43.2z"/>
<path fill="#9B7D6D" d="M0,58.7C0,66.1,5.4,72.2,12,72.2h30.6c6.601,0,12-6.101,12-13.5v-0.4H0V58.7z"/>
<path fill="#97BDDB" d="M117.3,60.1c-1.1,27.601-23.9,49.7-51.8,49.7H65.4C36.9,109.7,13.8,86.7,13.7,58.3H105.4
	c3.801,0.2,7.5,0.3,11.301,0.3C116.8,59.1,117,59.7,117.3,60.1L117.3,60.1z"/>
<path fill="#9B7D6D" d="M104.4,58.5c-0.3,21.2-17.6,38.3-38.8,38.3h-0.1C44.2,96.7,26.9,79.5,26.8,58.2l0,0h68.7c0.1,0,0.2,0,0.3,0
	C98.6,58.4,101.5,58.5,104.4,58.5L104.4,58.5z"/>
<path fill="#EA9500" d="M189.1,0.1c0,2.601-0.399,5.101-1.2,7.5c-0.6,1.801-1.5,3.601-2.5,5.301V13c-5.6,8.9-16.899,15-29.899,15
	h-27.3V0.2H189.1V0.1z"/>
<path fill="#97BDDB" d="M128.2,0v27.4H112.4V10c0-5.5,4.5-10,10-10H128.2L128.2,0z"/>
<path fill="#9B7D6D" d="M134.5,13c0,3.2-2.8,5.8-6.2,5.8s-6.2-2.6-6.2-5.8s2.8-5.8,6.2-5.8C131.7,7.1,134.5,9.7,134.5,13L134.5,13z"
	/>
<path fill="#231E1F" d="M130.9,12.9c0,1.3-1.199,2.399-2.6,2.399s-2.6-1.1-2.6-2.399c0-1.301,1.199-2.4,2.6-2.4
	S130.9,11.5,130.9,12.9L130.9,12.9z"/>
<path fill="#F0AC33" d="M189.1,0H128.2v7.1c3.399,0,6.199,2.5,6.3,5.7H185.4c1-1.7,1.9-3.5,2.5-5.3C188.7,5.2,189.1,2.6,189.1,0
	L189.1,0z"/>
<path fill="#B5D1E5" d="M128.2,0h-5.7c-5.5,0-10,4.5-10,10v2.8h9.6c0.101-3.2,2.8-5.7,6.101-5.7v-7V0L128.2,0z"/>
<path fill="#B8A297" d="M128.3,7.1C128.3,7.1,128.2,7.1,128.3,7.1c-3.4,0-6.2,2.601-6.2,5.7h3.601l0,0c0-1.3,1.199-2.399,2.6-2.399
	s2.6,1.1,2.6,2.399l0,0h3.601C134.4,9.7,131.7,7.1,128.3,7.1L128.3,7.1z"/>
<path fill="#635F60" d="M128.3,10.4c-1.4,0-2.6,1.1-2.6,2.399l0,0h5.199l0,0C130.9,11.5,129.7,10.4,128.3,10.4L128.3,10.4z"/>
<path fill="#B0CDE4" d="M105.4,58.3H95.7c2.899,0.101,5.8,0.2,8.699,0.2c-0.3,21.2-17.6,38.3-38.8,38.3v12.9
	c27.9,0,50.7-22.101,51.8-49.7c-0.3-0.5-0.5-1-0.6-1.5c-0.4,0-0.9,0-1.3,0C112,58.5,108.7,58.4,105.4,58.3L105.4,58.3z"/>
<path fill="#B39C90" d="M95.4,58.3H65.6V96.9c21.3,0,38.601-17.4,38.8-38.601c-2.899-0.1-5.8,0.101-8.699,0l0,0
	C95.6,58.3,95.5,58.3,95.4,58.3L95.4,58.3z"/>
</svg>
