<?xml version="1.0" encoding="utf-8"?>
<!-- Generator: Adobe Illustrator 16.0.0, SVG Export Plug-In . SVG Version: 6.00 Build 0)  -->
<!DOCTYPE svg PUBLIC "-//W3C//DTD SVG 1.1//EN" "http://www.w3.org/Graphics/SVG/1.1/DTD/svg11.dtd">
<svg version="1.1" id="Layer_1" xmlns="http://www.w3.org/2000/svg" xmlns:xlink="http://www.w3.org/1999/xlink" x="0px" y="0px"
	 width="31.2px" height="46.5px" viewBox="0 0 31.2 46.5" enable-background="new 0 0 31.2 46.5" xml:space="preserve">
<g>
	<path fill="#76A3C1" d="M4.75,32.649c-0.1,2.101-0.3,4.101-0.6,6.101c13.5-1.5,19.299-12.101,19.6-22.9
		c0.199-6.1-2.7-11.399-6.7-15.3h-1.4v-0.5h-15.8v0.3c0.2,0,0.4,0,0.5,0c8.6,0,15.5,7,15.5,15.5c0,7.8-5.7,14.2-13.1,15.3
		c0.4,0,0.9,0,1.3,0C4.25,31.649,4.45,32.149,4.75,32.649z"/>
	<path fill="#97BDDB" d="M27.05,0.45c2.601,4.5,4.101,9.699,4.101,15.3c0,16.3-12.701,29.7-28.801,30.6l0,0
		c16.2-0.8,29-14.2,29-30.6c0-5.601-1.5-10.8-4.1-15.3l0,0H27.05L27.05,0.45z"/>
	<path fill="#97BDDB" d="M23.75,15.85c-0.301,10.8-6.2,21.5-19.6,22.9c-0.4,2.6-1,5.2-1.8,7.7c16.1-1,28.801-14.301,28.801-30.601
		c0-5.6-1.5-10.8-4.101-15.3l0,0h-10C21.05,4.45,23.95,9.649,23.75,15.85z"/>
</g>
</svg>
