<?xml version="1.0" encoding="utf-8"?>
<!-- Generator: Adobe Illustrator 16.0.0, SVG Export Plug-In . SVG Version: 6.00 Build 0)  -->
<!DOCTYPE svg PUBLIC "-//W3C//DTD SVG 1.1//EN" "http://www.w3.org/Graphics/SVG/1.1/DTD/svg11.dtd">
<svg version="1.1" id="Layer_1" xmlns="http://www.w3.org/2000/svg" xmlns:xlink="http://www.w3.org/1999/xlink" x="0px" y="0px"
	 width="12.4px" height="11.6px" viewBox="0 0 12.4 11.6" enable-background="new 0 0 12.4 11.6" xml:space="preserve">
<g>
	<path fill="#9B7D6D" d="M12.399,5.85c0,3.2-2.799,5.799-6.2,5.799C2.8,11.65,0,9.05,0,5.85c0-3.2,2.8-5.8,6.199-5.8
		C9.6-0.05,12.399,2.551,12.399,5.85L12.399,5.85z"/>
	<path fill="#231E1F" d="M8.8,5.751C8.8,7.05,7.6,8.15,6.199,8.15c-1.399,0-2.6-1.1-2.6-2.399c0-1.301,1.2-2.4,2.6-2.4
		C7.6,3.35,8.8,4.35,8.8,5.751L8.8,5.751z"/>
	<path fill="#B8A297" d="M6.199-0.05C6.199-0.05,6.1-0.05,6.199-0.05C2.8-0.05,0,2.551,0,5.65h3.6l0,0c0-1.3,1.2-2.399,2.6-2.399
		c1.401,0,2.6,1.1,2.6,2.399l0,0h3.6C12.3,2.551,9.6-0.05,6.199-0.05L6.199-0.05z"/>
	<path fill="#635F60" d="M6.199,3.251c-1.399,0-2.6,1.1-2.6,2.399l0,0h5.2l0,0C8.8,4.35,7.6,3.251,6.199,3.251L6.199,3.251z"/>
</g>
</svg>
