<?xml version="1.0" encoding="utf-8"?>
<!-- Generator: Adobe Illustrator 19.1.0, SVG Export Plug-In . SVG Version: 6.00 Build 0)  -->
<svg version="1.2" baseProfile="tiny" id="Layer_1" xmlns="http://www.w3.org/2000/svg" xmlns:xlink="http://www.w3.org/1999/xlink"
	 x="0px" y="0px" width="30.411px" height="31.074px" viewBox="0 0 30.411 31.074" xml:space="preserve">
<path display="none" fill="#732B1F" d="M78.783-20.067c-5.533,0-10.841,0.713-15.781,2.008l1.878,7.16L67.19-0.626
	c0,0-6.263,0.114-6.263,6.392c0,6.277,7.72,5.25,7.72,5.25s36.07,0,57.389,0C123.058-6.512,103.045-20.067,78.783-20.067z"/>
<path fill="#A97DD9" d="M8.669,0.023c0.495,6.858,4.701,9.197,9.34,11.534c3.956,1.992,9.319,1.862,12.036,1.866l0.336,0.001
	l-0.019,9.11l-0.326-0.001c-3.086-0.003-9.559,1.77-14.906-0.923c-3.115-1.569-5.266-5.2-7.123-8.086
	C5.878,10.216,4.241,8.534,4.264,0.012L8.669,0.023z"/>
<path fill="#4E3654" d="M0,0l4.312,0.012C4.29,8.384,7.519,13.686,13.805,18.079c6.232,4.355,14.479,3.598,16.606,3.604
	l-0.023,9.391c-2.531-0.007-9.947-0.471-17.839-4.938C3.778,21.172-0.034,12.855,0,0z"/>
</svg>
