<?xml version="1.0" encoding="utf-8"?>
<!-- Generator: Adobe Illustrator 19.1.0, SVG Export Plug-In . SVG Version: 6.00 Build 0)  -->
<svg version="1.2" baseProfile="tiny" id="Layer_1" xmlns="http://www.w3.org/2000/svg" xmlns:xlink="http://www.w3.org/1999/xlink"
	 x="0px" y="0px" width="67.585px" height="37.037px" viewBox="0 0 67.585 37.037" xml:space="preserve">
	<path fill-rule="evenodd"
        d="M57.49,29.12c1.1,-3.68 3.09,-6.97 5.74,-9.61c1.3,-1.3 2.77,-2.45 4.36,-3.41c-1.27,-1.85 -2.72,-3.61 -4.36,-5.25c-7.23,-7.23 -16.71,-10.85 -26.19,-10.85v15.11C46.36,15.11 54.32,20.93 57.49,29.12z"
        fill="#715077"/>
	<path fill-rule="evenodd"
        d="M37.04,15.11L37.04,0c-9.48,0 -18.96,3.62 -26.19,10.85S0,27.56 0,37.04h15.11C15.11,24.93 24.93,15.11 37.04,15.11z"
        fill="#A97DD9"/>
	<path fill-rule="evenodd"
        d="M37.04,0l0,0l0,0z"
        fill="#A97DD9"/>
</svg>
