<?xml version="1.0" encoding="utf-8"?>
<!-- Generator: Adobe Illustrator 19.1.0, SVG Export Plug-In . SVG Version: 6.00 Build 0)  -->
<svg version="1.2" baseProfile="tiny" id="Layer_1" xmlns="http://www.w3.org/2000/svg" xmlns:xlink="http://www.w3.org/1999/xlink"
	 x="0px" y="0px" width="118.326px" height="10.279px" viewBox="0 0 118.326 10.279" xml:space="preserve">
<path display="none" fill="#732B1F" d="M53.255-52.871c-5.533,0-10.841,0.713-15.781,2.008l1.878,7.16l2.311,10.272
	c0,0-6.263,0.114-6.263,6.392c0,6.277,7.72,5.25,7.72,5.25s36.07,0,57.389,0C97.529-39.316,77.517-52.871,53.255-52.871z"/>
<path fill="#7B73BD" d="M61.498,5.139c0,2.838,2.482,5.139,5.544,5.139h45.74c3.062,0,5.544-2.301,5.544-5.139l0,0
	c0-2.838-2.482-5.139-5.544-5.139h-45.74C63.98,0,61.498,2.301,61.498,5.139L61.498,5.139z"/>
<path fill="#433745" d="M0,5.139c0,2.838,2.301,5.139,5.14,5.139h61.402c2.838,0,5.139-2.301,5.139-5.139l0,0
	C71.681,2.301,69.38,0,66.541,0H5.14C2.301,0,0,2.301,0,5.139L0,5.139z"/>
</svg>
