<?xml version="1.0" encoding="utf-8"?>
<!-- Generator: Adobe Illustrator 19.1.0, SVG Export Plug-In . SVG Version: 6.00 Build 0)  -->
<svg version="1.2" baseProfile="tiny" id="Layer_1" xmlns="http://www.w3.org/2000/svg" xmlns:xlink="http://www.w3.org/1999/xlink"
	 x="0px" y="0px" width="87.604px" height="58.059px" viewBox="0 0 87.604 58.059" xml:space="preserve">
<path display="none" fill="#732B1F" d="M-23.302,5.395c-5.533,0-10.841,0.713-15.781,2.008l1.878,7.16l2.311,10.272
	c0,0-6.263,0.114-6.263,6.392c0,6.277,7.72,5.25,7.72,5.25s36.07,0,57.389,0C20.973,18.95,0.96,5.395-23.302,5.395z"/>
<path fill="#A97DD9" d="M78.144,39.685c0,0-36.75,6.315-38.205-39.685H0.007c0,0-1.729,58.059,50.484,58.059
	c19.83,0,30.2-16.01,30.2-16.01L78.144,39.685z M32.162,29.521c-2.185,0-3.957-1.772-3.957-3.957s1.772-3.957,3.957-3.957
	s3.957,1.772,3.957,3.957S34.347,29.521,32.162,29.521z"/>
<circle fill="#3D3D3D" cx="82.055" cy="37.435" r="5.549"/>
</svg>
