<?xml version="1.0" encoding="utf-8"?>
<!-- Generator: Adobe Illustrator 19.1.0, SVG Export Plug-In . SVG Version: 6.00 Build 0)  -->
<svg version="1.2" baseProfile="tiny" id="Layer_1" xmlns="http://www.w3.org/2000/svg" xmlns:xlink="http://www.w3.org/1999/xlink"
	 x="0px" y="0px" width="39.023px" height="44.24px" viewBox="0 0 39.023 44.24" xml:space="preserve">
	<path fill-rule="evenodd"
        d="M24.25,44.24c3.06,-1.16 5.8,-2.95 8.07,-5.22l-13.38,-13.38C19.72,33.45 21.65,39.53 24.25,44.24z"
        fill="#433745"/>
	<path fill-rule="evenodd"
        d="M18.63,20.67c0.06,1.74 0.17,3.39 0.33,4.98l13.38,13.38c4.14,-4.14 6.7,-9.85 6.7,-16.16c0,-6.31 -2.56,-12.03 -6.7,-16.16l-13.98,13.98L18.63,20.67L18.63,20.67z"
        fill="#7B73BD"/>
	<path fill-rule="evenodd"
        d="M18.35,20.67l13.98,-13.98c-4.14,-4.14 -9.85,-6.7 -16.16,-6.7c-6.31,0 -12.03,2.56 -16.16,6.7l13.98,13.98L18.35,20.67z"
        fill="#4F4083"/>
</svg>
