<?xml version="1.0" encoding="utf-8"?>
<!-- Generator: Adobe Illustrator 19.1.0, SVG Export Plug-In . SVG Version: 6.00 Build 0)  -->
<svg version="1.2" baseProfile="tiny" id="Layer_1" xmlns="http://www.w3.org/2000/svg" xmlns:xlink="http://www.w3.org/1999/xlink"
	 x="0px" y="0px" width="52.033px" height="37.038px" viewBox="0 0 52.033 37.038" xml:space="preserve">
	<path fill-rule="evenodd"
        d="M0,0c0,9.48 3.62,18.96 10.85,26.19c7.23,7.23 16.71,10.85 26.19,10.85L37.04,0L0,0z"
        fill="#9A7998"/>
	<path fill-rule="evenodd"
        d="M37.04,37.04c5.12,0 10.23,-1.06 14.99,-3.17c-2.86,-4.43 -4.9,-9.15 -6.37,-13.7c-2.65,1.13 -5.56,1.76 -8.62,1.76L37.04,37.04z"
        fill="#4F4083"/>
	<path fill-rule="evenodd"
        d="M42,0L15.11,0c0,12.11 9.82,21.93 21.93,21.93c3.06,0 5.97,-0.63 8.61,-1.76C42.98,11.93 42.21,4.28 42,0z"
        fill="#4E3654"/>
</svg>
