<?xml version="1.0" encoding="utf-8"?>
<!-- Generator: Adobe Illustrator 19.1.0, SVG Export Plug-In . SVG Version: 6.00 Build 0)  -->
<svg version="1.2" baseProfile="tiny" id="Layer_1" xmlns="http://www.w3.org/2000/svg" xmlns:xlink="http://www.w3.org/1999/xlink"
	 x="0px" y="0px" width="189.689px" height="101.621px" viewBox="0 0 189.689 101.621" xml:space="preserve">
<path display="none" fill="#732B1F" d="M78.783,38.471c-5.533,0-10.841,0.713-15.781,2.008l1.878,7.16l2.311,10.272
	c0,0-6.263,0.114-6.263,6.392c0,6.277,7.72,5.25,7.72,5.25s36.07,0,57.389,0C123.058,52.026,103.045,38.471,78.783,38.471z"/>
<g>
	<path fill="#715077" d="M65.341,30.669c0,0-34.93,11.462-34.93,35.749c0,16.919,0,24.924,0,24.924h120.582l-3.784-7.459
		l-33.566-53.214H65.341z"/>
	<path fill="#9A7998" d="M60.171,37.037c0,9.479,3.616,18.957,10.848,26.189c7.232,7.232,16.711,10.848,26.189,10.848V37.037H60.171
		z"/>
	<path fill="#A97DD9" d="M97.209,0C87.73,0,78.251,3.616,71.019,10.848S60.171,27.559,60.171,37.037h37.037V0z"/>
	<path fill="#715077" d="M123.398,10.848C116.166,3.616,106.688,0,97.209,0v37.037h37.037
		C134.246,27.559,130.63,18.08,123.398,10.848z"/>
	<path fill="#4F4083" d="M97.209,74.075c9.479,0,18.957-3.616,26.19-10.848c7.232-7.232,10.848-16.711,10.848-26.19H97.209V74.075z"
		/>
	<circle fill="#4E3654" cx="97.209" cy="37.037" r="21.931"/>
	<path fill="#4B4375" d="M97.209,15.107c12.112,0,21.931,9.819,21.931,21.931H75.278C75.278,24.925,85.097,15.107,97.209,15.107z"/>
	<path fill="#433745" d="M123.399,51.842c4.137,4.137,9.851,6.695,16.164,6.695c6.312,0,12.027-2.559,16.164-6.695l-16.164-16.164
		L123.399,51.842z"/>
	<path fill="#4E3654" d="M123.399,19.514c-4.137,4.137-6.695,9.851-6.695,16.164c0,6.312,2.559,12.027,6.695,16.164l16.164-16.164
		L123.399,19.514z"/>
	<path fill="#4F4083" d="M139.563,12.819c-6.312,0-12.027,2.559-16.164,6.695l16.164,16.164l16.164-16.164
		C151.59,15.377,145.876,12.819,139.563,12.819z"/>
	<path fill="#7B73BD" d="M155.727,51.842c4.137-4.137,6.695-9.851,6.695-16.164c0-6.312-2.559-12.027-6.695-16.164l-16.164,16.164
		L155.727,51.842z"/>
	<path fill="#A97DD9" d="M142.024,33.489h-39.932c0,0-1.729,57.853,50.484,57.853c19.83,0,30.2-16.01,30.2-16.01l-2.547-2.365
		C180.229,72.968,143.479,78.607,142.024,33.489z"/>
	<circle fill="#3D3D3D" cx="184.14" cy="70.512" r="5.549"/>
	<circle cx="134.246" cy="58.641" r="3.957"/>
	<circle fill="#FFFFFF" cx="134.246" cy="58.641" r="2.32"/>
	<path fill="#7B73BD" d="M87.026,96.482c0,2.838,2.482,5.139,5.544,5.139h45.74c3.062,0,5.544-2.301,5.544-5.139l0,0
		c0-2.838-2.482-5.139-5.544-5.139H92.57C89.508,91.342,87.026,93.643,87.026,96.482L87.026,96.482z"/>
	<path fill="#433745" d="M25.528,96.482c0,2.838,2.301,5.139,5.14,5.139h61.402c2.838,0,5.139-2.301,5.139-5.139l0,0
		c0-2.838-2.301-5.139-5.139-5.139H30.668C27.829,91.342,25.528,93.643,25.528,96.482L25.528,96.482z"/>
	<path fill="#A97DD9" d="M8.669,58.561c0.495,6.858,4.701,9.197,9.34,11.534c3.956,1.992,9.319,1.862,12.036,1.866l0.336,0.001
		l-0.019,9.11l-0.326-0.001c-3.086-0.003-9.559,1.77-14.906-0.923c-3.115-1.569-5.266-5.2-7.123-8.086
		c-2.128-3.308-3.765-4.989-3.742-13.512L8.669,58.561z"/>
	<path fill="#4E3654" d="M0,58.538l4.312,0.012c-0.022,8.372,3.206,13.675,9.492,18.067c6.232,4.355,14.479,3.598,16.606,3.604
		l-0.023,9.391c-2.531-0.007-9.947-0.471-17.839-4.938C3.778,79.71-0.034,71.393,0,58.538z"/>
	<path fill="#4F4083" d="M54.643,35.389v55.953H30.411c0,0,0-8.005,0-24.924C30.411,51.062,44.373,40.835,54.643,35.389z"/>
</g>
</svg>
