<?xml version="1.0" encoding="utf-8"?>
<!-- Generator: Adobe Illustrator 19.1.0, SVG Export Plug-In . SVG Version: 6.00 Build 0)  -->
<svg version="1.2" baseProfile="tiny" id="Layer_1" xmlns="http://www.w3.org/2000/svg" xmlns:xlink="http://www.w3.org/1999/xlink"
	 x="0px" y="0px" width="80.805px" height="44.458px" viewBox="0 0 80.805 44.458" xml:space="preserve">
	<path fill-rule="evenodd"
        d="M78.82,43.02L78.82,15.51c0,-8.52 -6.99,-15.51 -15.51,-15.51L17.49,0c-8.52,0 -15.51,6.99 -15.51,15.51v27.51h29.51v-32.21c0,-2.58 2.12,-4.7 4.7,-4.7h8.42c2.58,0 4.7,2.12 4.7,4.7v32.21L78.82,43.02L78.82,43.02z"
        fill="#93BDD2"/>
	<path fill-rule="evenodd"
        d="M30.15,37.8L3.33,37.8c-1.83,0 -3.33,1.5 -3.33,3.33l0,0c0,1.83 1.5,3.33 3.33,3.33h26.83c1.83,0 3.33,-1.5 3.33,-3.33l0,0C33.48,39.3 31.98,37.8 30.15,37.8L30.15,37.8z"
        fill="#93BDD2"/>
	<path fill-rule="evenodd"
        d="M77.48,37.8h-26.83c-1.83,0 -3.33,1.5 -3.33,3.33l0,0c0,1.83 1.5,3.33 3.33,3.33h26.83c1.83,0 3.33,-1.5 3.33,-3.33l0,0C80.81,39.3 79.31,37.8 77.48,37.8L77.48,37.8z"
        fill="#93BDD2"/>
</svg>
