<?xml version="1.0" encoding="utf-8"?>
<!-- Generator: Adobe Illustrator 19.1.0, SVG Export Plug-In . SVG Version: 6.00 Build 0)  -->
<svg version="1.2" baseProfile="tiny" id="Layer_1" xmlns="http://www.w3.org/2000/svg" xmlns:xlink="http://www.w3.org/1999/xlink"
	 x="0px" y="0px" width="94.397px" height="75.827px" viewBox="0 0 94.397 75.827" xml:space="preserve">
<path fill-rule="evenodd" fill="#93BDD2" d="M0,28.629l0.138,32.718c0.034,7.964,6.517,14.48,14.48,14.48h32.581h3.526v-0.131
	c24.42-1.805,43.672-22.187,43.672-47.067C62.932,28.629,31.466,28.629,0,28.629L0,28.629z"/>
<path fill-rule="evenodd" fill="#FFFFFF" d="M61.657,33.701c-6.269,0-11.352,5.082-11.352,11.352
	c0,6.269,5.083,11.351,11.352,11.351c6.269,0,11.352-5.082,11.352-11.351C73.009,38.783,67.926,33.701,61.657,33.701L61.657,33.701z
	"/>
<path fill-rule="evenodd" fill="#93BDD2" d="M75.635,0h9.381c5.16,0,9.382,4.222,9.382,9.382v9.381h-9.382
	c-5.159,0-9.381-4.222-9.381-9.381V0L75.635,0z"/>
<path fill-rule="evenodd" fill="#93BDD2" d="M94.4,15.76l-4.69,0l0,15.87l4.69,0l0,-9.87z"/>
</svg>
