<?xml version="1.0" encoding="utf-8"?>
<!-- Generator: Adobe Illustrator 19.1.0, SVG Export Plug-In . SVG Version: 6.00 Build 0)  -->
<svg version="1.2" baseProfile="tiny" id="Layer_1" xmlns="http://www.w3.org/2000/svg" xmlns:xlink="http://www.w3.org/1999/xlink"
	 x="0px" y="0px" width="193.811px" height="118.869px" viewBox="0 0 193.811 118.869" xml:space="preserve">
<path fill-rule="evenodd" fill="#443F6A" d="M34.018,14.467v25.159H18.429C18.429,28.604,24.777,19.066,34.018,14.467L34.018,14.467
	z"/>
<path fill-rule="evenodd" fill="#93BDD2" d="M130.354,31.286h43.952c10.729,0,19.505,8.779,19.505,19.506v29.016h-6.863
	c0-19.119,0-9.896,0-29.016c0-6.941-5.702-12.643-12.642-12.643h-43.952V31.286L130.354,31.286z"/>
<path fill-rule="evenodd" fill="#443F6A" d="M71.516,31.286h88.107c11.435,0,20.789,9.354,20.789,20.788v26.553
	c0,11.434-9.354,20.788-20.789,20.789v-9.498c0-11.631-9.516-21.146-21.146-21.146H92.66c-11.63,0-21.146,9.516-21.146,21.146v9.498
	c-11.434-0.001-20.789-9.355-20.789-20.789V52.074C50.726,40.641,60.08,31.286,71.516,31.286L71.516,31.286z"/>
<path fill-rule="evenodd" fill="#93BDD2" d="M0,31.286l0.138,32.718c0.034,7.964,6.517,14.48,14.48,14.48h32.581h3.526v-0.131
	c24.42-1.805,43.672-22.188,43.672-47.067C62.932,31.286,31.466,31.286,0,31.286L0,31.286z"/>
<path fill-rule="evenodd" fill="#FFFFFF" d="M61.657,36.358c-6.269,0-11.352,5.082-11.352,11.352
	c0,6.269,5.083,11.351,11.352,11.351c6.269,0,11.352-5.082,11.352-11.351C73.009,41.44,67.926,36.358,61.657,36.358L61.657,36.358z"
	/>
<path fill-rule="evenodd" fill="#93BDD2" d="M75.635,2.657h9.381c5.16,0,9.382,4.222,9.382,9.382v9.381h-9.382
	c-5.159,0-9.381-4.222-9.381-9.381V2.657L75.635,2.657z"/>
<polygon fill-rule="evenodd" fill="#93BDD2" points="94.397,21.42 89.707,21.42 89.707,31.286 94.397,31.286 94.397,21.42 "/>
<path fill-rule="evenodd" fill="#93BDD2" d="M153.984,117.427V89.918c0-8.518-6.989-15.507-15.507-15.507H92.66
	c-8.518,0-15.506,6.989-15.506,15.507v27.509h29.506v-32.21c0-2.584,2.115-4.698,4.699-4.698h8.42c2.584,0,4.699,2.115,4.699,4.698
	v32.21H153.984L153.984,117.427z"/>
<path fill-rule="evenodd" fill="#93BDD2" d="M105.319,112.213H78.494c-1.83,0-3.328,1.497-3.328,3.328l0,0
	c0,1.83,1.498,3.328,3.328,3.328h26.825c1.83,0,3.328-1.498,3.328-3.328l0,0C108.647,113.71,107.149,112.213,105.319,112.213
	L105.319,112.213z"/>
<path fill-rule="evenodd" fill="#93BDD2" d="M152.643,112.213h-26.825c-1.83,0-3.328,1.497-3.328,3.328l0,0
	c0,1.83,1.498,3.328,3.328,3.328h26.825c1.83,0,3.328-1.498,3.328-3.328l0,0C155.972,113.71,154.474,112.213,152.643,112.213
	L152.643,112.213z"/>
<path fill-rule="evenodd" fill="#443F6A" d="M0,31.286C0,17.517,8.012,5.619,19.629,0v31.286H0L0,31.286z"/>
</svg>
