<?xml version="1.0" encoding="utf-8"?>
<!-- Generator: Adobe Illustrator 16.0.0, SVG Export Plug-In . SVG Version: 6.00 Build 0)  -->
<!DOCTYPE svg PUBLIC "-//W3C//DTD SVG 1.1//EN" "http://www.w3.org/Graphics/SVG/1.1/DTD/svg11.dtd">
<svg version="1.1" id="Layer_1" xmlns="http://www.w3.org/2000/svg" xmlns:xlink="http://www.w3.org/1999/xlink" x="0px" y="0px"
	 width="41.2px" height="43.6px" viewBox="0 0 41.2 43.6" enable-background="new 0 0 41.2 43.6" xml:space="preserve">
<g>
	<polygon fill="#B8DC7C" points="34.901,0 5,6.3 27.1,25.6 27.1,25.5 	"/>
	<polygon fill="#536E38" points="27.1,25.5 41.2,4 34.901,0 	"/>
	<polygon fill="#C9D825" points="7.6,41.7 4.5,27.2 0.1,27.6 5.9,42.9 8.2,43.6 	"/>
	<polygon fill="#B8DC6B" points="8.2,43.6 28.3,38.4 7.6,41.7 	"/>
	<polygon fill="#83B000" points="1.3,21.9 0,27.4 0.1,27.6 4.5,27.2 27,25.7 	"/>
	<polygon fill="#C7D922" points="3,14.4 1.3,21.9 27,25.7 27.1,25.6 	"/>
	<polygon fill="#546E38" points="5,5.2 3,14.4 27.1,25.6 27.1,25.6 	"/>
</g>
</svg>
