<?xml version="1.0" encoding="utf-8"?>
<!-- Generator: Adobe Illustrator 19.1.0, SVG Export Plug-In . SVG Version: 6.00 Build 0)  -->
<svg version="1.2" baseProfile="tiny" id="Layer_1" xmlns="http://www.w3.org/2000/svg" xmlns:xlink="http://www.w3.org/1999/xlink"
	 x="0px" y="0px" width="152.933px" height="119.334px" viewBox="0 0 152.933 119.334" xml:space="preserve">
<g>
	<polygon fill-rule="evenodd" fill="#B8DC7C" points="146.643,60.573 116.738,66.805 138.763,86.119 138.849,85.988 146.643,60.573 
			"/>
	<polygon fill-rule="evenodd" fill="#536E38" points="138.849,85.988 152.933,64.549 146.643,60.573 138.849,85.988 	"/>
	<polygon fill-rule="evenodd" fill="#89BF35" points="98.571,27.212 93.705,26.929 72.521,60.97 79.189,62.37 89.06,53.871 
		98.571,27.212 	"/>
	<polygon fill-rule="evenodd" fill="#C9D825" points="99.816,44.61 103.059,41.815 98.571,27.212 96.283,33.619 99.816,44.61 	"/>
	<polygon fill-rule="evenodd" fill="#51473A" points="47.478,88.86 51.881,88.952 53.625,84.229 31.469,46.553 31.384,46.511 
		47.478,88.86 	"/>
	<polygon fill-rule="evenodd" fill="#89BF35" points="31.529,102.764 34.732,102.178 40.08,85.516 36.541,80.593 32.012,100.392 
		31.529,102.764 	"/>
	<polygon fill-rule="evenodd" fill="#C4E18B" points="32.012,100.392 24.658,100.167 31.529,102.764 32.012,100.392 	"/>
	<polygon fill-rule="evenodd" fill="#79963E" points="34.774,78.042 36.541,80.593 40.08,85.516 42.895,88.763 47.478,88.86 
		39.206,67.092 34.774,78.042 	"/>
	<polygon fill-rule="evenodd" fill="#51473A" points="39.206,67.092 32.555,74.839 34.774,78.042 39.206,67.092 	"/>
	<polygon fill-rule="evenodd" fill="#89BF35" points="23.132,87.828 32.555,74.839 39.206,67.092 35.343,56.929 28.677,69.942 
		19.099,87.267 23.132,87.828 	"/>
	<polygon fill-rule="evenodd" fill="#546E39" points="19.89,108.689 23.132,87.282 19.099,86.779 16.86,107.965 19.89,108.689 	"/>
	<polygon fill-rule="evenodd" fill="#89BF35" points="16.86,107.965 9.106,115.445 19.89,108.689 16.86,107.965 	"/>
	<polygon fill-rule="evenodd" fill="#89BF35" points="13.703,82.658 28.677,69.942 25.904,65.654 10.438,82.73 13.703,82.658 	"/>
	<polygon fill-rule="evenodd" fill="#546E39" points="8.318,101.518 9.834,101.4 13.703,82.658 10.438,82.722 8.411,99.832 
		8.318,101.518 	"/>
	<polygon fill-rule="evenodd" fill="#89BF35" points="8.411,99.832 2.495,98.802 8.318,101.518 8.411,99.832 	"/>
	<polygon fill-rule="evenodd" fill="#79963E" points="19.341,55.769 25.904,65.654 28.677,69.942 35.343,56.929 31.384,46.511 
		22.658,42.2 19.341,55.769 	"/>
	<polygon fill-rule="evenodd" fill="#516F38" points="19.341,55.769 22.66,42.2 13.485,37.702 18.838,45.349 19.341,55.769 	"/>
	<polygon fill-rule="evenodd" fill="#514B43" points="0.934,39.337 0,44.044 1.98,43.218 0.934,39.337 	"/>
	<polygon fill-rule="evenodd" fill="#79963E" points="19.121,62.357 19.341,55.769 18.838,45.349 4.126,51.206 4.091,51.161 
		19.121,62.357 	"/>
	<polygon fill-rule="evenodd" fill="#4C463D" points="4.091,51.161 14.551,64.431 19.121,62.357 4.091,51.161 	"/>
	<polygon fill-rule="evenodd" fill="#566A3E" points="12.507,35.354 70.866,0 0.934,39.337 1.98,43.22 4.126,51.206 3.073,39.943 
		12.507,35.354 	"/>
	<polygon fill-rule="evenodd" fill="#B9DB7C" points="3.073,39.943 4.126,51.206 18.838,45.349 13.485,37.702 4.761,42.518 
		3.073,39.943 	"/>
	<polygon fill-rule="evenodd" fill="#7D9A37" points="13.485,37.701 82.858,2.211 12.507,35.354 3.073,39.943 4.761,42.518 
		13.485,37.701 	"/>
	<polygon fill-rule="evenodd" fill="#89BF35" points="60.135,84.765 49.114,54.049 31.469,46.553 53.625,84.229 60.135,84.765 	"/>
	<polygon fill-rule="evenodd" fill="#536E3A" points="47.475,111.856 57.792,89.371 60.135,84.765 53.625,84.229 51.881,88.952 
		43.559,112.238 47.475,111.856 	"/>
	<polygon fill-rule="evenodd" fill="#8FBE4A" points="43.559,112.238 59.6,119.334 47.475,111.856 43.559,112.238 	"/>
	<polygon fill-rule="evenodd" fill="#546E39" points="59.197,82.153 60.135,84.766 57.792,89.373 74.269,90.208 75.699,87.852 
		127.656,25.824 121.833,21.937 103.059,38.746 59.197,82.153 	"/>
	<polygon fill-rule="evenodd" fill="#83B000" points="55.963,73.139 59.197,82.153 66.795,74.634 55.963,73.139 	"/>
	<polygon fill-rule="evenodd" fill="#C7D922" points="55.963,73.139 66.795,74.634 79.189,62.37 55.963,73.139 	"/>
	<polygon fill-rule="evenodd" fill="#546E39" points="79.189,62.37 72.521,60.763 49.114,54.047 55.963,73.139 79.189,62.37 	"/>
	<polygon fill-rule="evenodd" fill="#C9D825" points="119.326,102.189 116.16,87.733 111.764,88.118 117.586,103.444 
		119.911,104.132 119.326,102.189 	"/>
	<polygon fill-rule="evenodd" fill="#B8DC6B" points="119.911,104.132 140.019,98.901 119.326,102.189 119.911,104.132 	"/>
	<polygon fill-rule="evenodd" fill="#546B48" points="109.689,72.787 111.018,66.448 94.474,65.438 94.474,65.44 109.689,72.787 	
		"/>
	<polygon fill-rule="evenodd" fill="#C7D922" points="107.854,81.542 109.689,72.787 94.474,65.44 83.624,78.391 107.854,81.542 	
		"/>
	<polygon fill-rule="evenodd" fill="#83B000" points="83.624,78.391 75.699,87.852 106.422,88.378 107.854,81.542 83.624,78.391 	
		"/>
	<polygon fill-rule="evenodd" fill="#C9D825" points="107.038,66.206 111.018,66.448 106.696,50.849 103.763,54.349 107.038,66.206 
			"/>
	<polygon fill-rule="evenodd" fill="#83B000" points="112.956,82.476 111.712,87.979 111.764,88.118 116.16,87.733 138.708,86.208 
		112.956,82.476 	"/>
	<polygon fill-rule="evenodd" fill="#C7D922" points="114.667,74.905 112.956,82.476 138.708,86.208 138.758,86.128 114.667,74.905 
			"/>
	<polygon fill-rule="evenodd" fill="#546E38" points="116.738,65.738 114.667,74.905 138.758,86.128 138.763,86.119 116.738,65.738 
			"/>
	<polygon fill-rule="evenodd" fill="#529136" points="106.575,109.803 111.712,87.979 116.738,65.738 127.656,25.824 116.82,38.762 
		106.422,88.378 102.297,110.731 106.575,109.803 	"/>
	<polygon fill-rule="evenodd" fill="#8FBE4A" points="102.297,110.731 133.559,117.017 106.575,109.803 102.297,110.731 	"/>
</g>
</svg>
