<?xml version="1.0" encoding="utf-8"?>
<!-- Generator: Adobe Illustrator 16.0.0, SVG Export Plug-In . SVG Version: 6.00 Build 0)  -->
<!DOCTYPE svg PUBLIC "-//W3C//DTD SVG 1.1//EN" "http://www.w3.org/Graphics/SVG/1.1/DTD/svg11.dtd">
<svg version="1.1" id="Layer_1" xmlns="http://www.w3.org/2000/svg" xmlns:xlink="http://www.w3.org/1999/xlink" x="0px" y="0px"
	 width="18.6px" height="18.6px" viewBox="0 0 18.6 18.6" enable-background="new 0 0 18.6 18.6" xml:space="preserve">
<path d="M0,9.3C0,4.199,4.199,0,9.3,0c5.1,0,9.3,4.199,9.3,9.3l0,0c0,5.1-4.2,9.3-9.3,9.3C4.1,18.6,0,14.4,0,9.3L0,9.3"/>
<path fill="#FFFFFF" d="M1.8,6.1c0-2.1,1.7-3.7,3.7-3.7c2.1,0,3.699,1.7,3.699,3.7c0,2.1-1.699,3.7-3.699,3.7
	C3.5,9.9,1.8,8.199,1.8,6.1"/>
</svg>
