<?xml version="1.0" encoding="utf-8"?>
<!-- Generator: Adobe Illustrator 16.0.0, SVG Export Plug-In . SVG Version: 6.00 Build 0)  -->
<!DOCTYPE svg PUBLIC "-//W3C//DTD SVG 1.1//EN" "http://www.w3.org/Graphics/SVG/1.1/DTD/svg11.dtd">
<svg version="1.1" id="Layer_1" xmlns="http://www.w3.org/2000/svg" xmlns:xlink="http://www.w3.org/1999/xlink" x="0px" y="0px"
	 width="48.3px" height="95.1px" viewBox="0 0 48.3 95.1" enable-background="new 0 0 48.3 95.1" xml:space="preserve">
<path fill="#A17E6F" d="M8.8,0l16.901,14.6C29.6,15.7,33.201,17.901,36,20.7c4.301,4.3,7,10.3,7,17c0,6.6-2.699,12.6-7,17l0,0
	c-0.1,0.1-0.199,0.2-0.299,0.3c2.5-1.7,6.699-3.7,12.6-3.7V0H8.8z"/>
<path fill="#A17E6F" d="M33,57.2C29.1,60,24.2,61.7,19,61.7c-6.5,0-12.5-2.601-16.8-6.9L2.4,55l-0.2-0.2c-0.1-0.1-0.1-0.1-0.2-0.2
	l0,0l0,0l0,0l-0.1-0.1l-0.2-0.2l0.2,0.2c-0.7-0.7-1.3-1.4-1.9-2.1V95.1h48.3V73.6L33,57.2z"/>
</svg>
