<?xml version="1.0" encoding="utf-8"?>
<!-- Generator: Adobe Illustrator 16.0.0, SVG Export Plug-In . SVG Version: 6.00 Build 0)  -->
<!DOCTYPE svg PUBLIC "-//W3C//DTD SVG 1.1//EN" "http://www.w3.org/Graphics/SVG/1.1/DTD/svg11.dtd">
<svg version="1.1" id="Layer_1" xmlns="http://www.w3.org/2000/svg" xmlns:xlink="http://www.w3.org/1999/xlink" x="0px" y="0px"
	 width="30.7px" height="51.9px" viewBox="0 0 30.7 51.9" enable-background="new 0 0 30.7 51.9" xml:space="preserve">
<g>
	<path fill="none" d="M23.6,32.7L23.6,32.7L23.6,32.7z"/>
	<path fill="none" d="M23.6,32.7L23.6,32.7L23.6,32.7L23.6,32.7z"/>
	<path fill="#1E1E1E" d="M30.7,51.9v-2.2c0,0.7,0,1.5-0.1,2.2H30.7z"/>
	<path fill="#1E1E1E" d="M0,26.599C2.1,26,4.3,25.7,6.7,25.7c6.6,0,12.599,2.7,17,7l-0.1-0.101l0.1,0.101l0,0l0,0l0,0l0,0l0,0
		l0.1,0.1l-0.1-0.1c4.301,4.3,7,10.3,7,17V0L0,26.599z"/>
</g>
</svg>
