<?xml version="1.0" encoding="utf-8"?>
<!-- Generator: Adobe Illustrator 19.1.0, SVG Export Plug-In . SVG Version: 6.00 Build 0)  -->
<svg version="1.2" baseProfile="tiny" id="Layer_1" xmlns="http://www.w3.org/2000/svg" xmlns:xlink="http://www.w3.org/1999/xlink"
	 x="0px" y="0px" width="48.277px" height="95.105px" viewBox="0 0 48.277 95.105" xml:space="preserve">
	 <path fill-rule="evenodd"
        d="M32.97,57.19c-3.95,2.85 -8.79,4.53 -14.03,4.53c-6.63,0 -12.63,-2.69 -16.98,-7.03c-0.7,-0.7 -1.35,-1.45 -1.97,-2.23v42.65h48.28v-21.49l-15.32,-16.42C32.95,57.2 32.97,57.19 32.97,57.19z"
        fill="#A17E6F"/>
    <path fill-rule="evenodd"
        d="M8.75,0l16.86,14.64c3.95,1.14 7.48,3.26 10.31,6.09c4.34,4.34 7.03,10.35 7.03,16.98c0,6.63 -2.69,12.63 -7.03,16.98c-0.11,0.11 -0.22,0.21 -0.33,0.32c2.48,-1.69 6.71,-3.74 12.69,-3.74L48.28,0L8.75,0z"
        fill="#A17E6F"/>
</svg>
