<?xml version="1.0" encoding="utf-8"?>
<!-- Generator: Adobe Illustrator 16.0.0, SVG Export Plug-In . SVG Version: 6.00 Build 0)  -->
<svg version="1.2" baseProfile="tiny" id="Layer_1" xmlns="http://www.w3.org/2000/svg" xmlns:xlink="http://www.w3.org/1999/xlink"
	 x="0px" y="0px" width="18.604px" height="18.604px" viewBox="0 0 18.604 18.604" xml:space="preserve">
<path d="M0,9.302c-0.001-5.138,4.163-9.303,9.301-9.304c5.137,0,9.303,4.164,9.303,9.301c0,0.001,0,0.002,0,0.003
	c0.001,5.138-4.163,9.303-9.301,9.304C4.166,18.606,0,14.442,0,9.305C0,9.304,0,9.303,0,9.302"/>
<path fill="#FFFFFF" d="M1.836,6.164c0-2.062,1.671-3.733,3.732-3.733c2.062,0,3.733,1.672,3.733,3.733S7.631,9.897,5.57,9.898
	C3.508,9.898,1.836,8.226,1.836,6.164L1.836,6.164"/>
</svg>
