<?xml version="1.0" encoding="utf-8"?>
<!-- Generator: Adobe Illustrator 19.1.0, SVG Export Plug-In . SVG Version: 6.00 Build 0)  -->
<svg version="1.2" baseProfile="tiny" id="Layer_1" xmlns="http://www.w3.org/2000/svg" xmlns:xlink="http://www.w3.org/1999/xlink"
	 x="0px" y="0px" width="48.018px" height="48.018px" viewBox="0 0 48.018 48.018" xml:space="preserve">
	<path fill-rule="evenodd"
        d="M40.99,7.03l-10.4,10.4c1.68,1.68 2.72,4.01 2.72,6.58s-1.04,4.89 -2.72,6.58l10.4,10.4c4.34,-4.34 7.03,-10.35 7.03,-16.98C48.02,17.38 45.33,11.38 40.99,7.03z"
        fill="#2F80B7"/>
    <path fill-rule="evenodd"
        d="M14.71,24.01c0,-2.57 1.04,-4.89 2.72,-6.58l-10.4,-10.4c-4.34,4.34 -7.03,10.35 -7.03,16.98c0,6.63 2.69,12.63 7.03,16.98L17.43,30.59C15.75,28.9 14.71,26.58 14.71,24.01z"
        fill="#1FA8CC"/>
    <path fill-rule="evenodd"
        d="M24.01,14.71c2.57,0 4.89,1.04 6.58,2.72l10.4,-10.4c-4.34,-4.34 -10.35,-7.03 -16.98,-7.03s-12.63,2.69 -16.98,7.03l10.4,10.4C19.12,15.75 21.44,14.71 24.01,14.71z"
        fill="#5ECCDC"/>
    <path fill-rule="evenodd"
        d="M30.59,30.59c-1.68,1.68 -4.01,2.72 -6.58,2.72s-4.89,-1.04 -6.58,-2.72l-10.4,10.4c4.34,4.34 10.35,7.03 16.98,7.03s12.63,-2.69 16.98,-7.03L30.59,30.59z"
        fill="#5AA7CF"/>
</svg>
