<?xml version="1.0" encoding="utf-8"?>
<!-- Generator: Adobe Illustrator 19.1.0, SVG Export Plug-In . SVG Version: 6.00 Build 0)  -->
<svg version="1.2" baseProfile="tiny" id="Layer_1" xmlns="http://www.w3.org/2000/svg" xmlns:xlink="http://www.w3.org/1999/xlink"
	 x="0px" y="0px" width="48.275px" height="95.105px" viewBox="0 0 48.275 95.105" xml:space="preserve">
	<path fill-rule="evenodd"
        d="M12.36,54.68c-4.34,-4.34 -7.03,-10.35 -7.03,-16.98s2.69,-12.63 7.03,-16.98c2.83,-2.83 6.36,-4.95 10.31,-6.09l16.86,-14.64h-39.53L-0,51.26c5.98,0 10.21,2.05 12.69,3.74C12.58,54.9 12.47,54.79 12.36,54.68z"
        fill="#7B5F5E"/>
    <path fill-rule="evenodd"
        d="M46.31,54.68c-4.34,4.34 -10.35,7.03 -16.98,7.03c-5.24,0 -10.08,-1.68 -14.03,-4.53c0,0 0.01,0.01 0.01,0.01l-15.32,16.42v21.49h48.28L48.28,52.45C47.67,53.23 47.01,53.98 46.31,54.68z"
        fill="#7B5F5E"/>
</svg>
