<?xml version="1.0" encoding="utf-8"?>
<!-- Generator: Adobe Illustrator 16.0.0, SVG Export Plug-In . SVG Version: 6.00 Build 0)  -->
<svg version="1.2" baseProfile="tiny" id="Layer_1" xmlns="http://www.w3.org/2000/svg" xmlns:xlink="http://www.w3.org/1999/xlink"
	 x="0px" y="0px" width="158.633px" height="118.525px" viewBox="0 0 158.633 118.525" xml:space="preserve">
<path fill="#E4BE88" d="M66.01,71.84L33,104.85L-0.01,71.84L33,38.83L66.01,71.84z"/>
<path fill="#5F4A48" d="M66.01,71.84H0l33.01,33.01L66.01,71.84z"/>
<path fill="#A17E6F" d="M31.04,12h48.28v95.109H31.04V12z"/>
<path fill="#3E3E3E" d="M64,33.031L25.98,0v51.95L64,33.031z"/>
<path fill="#1FA8CC" d="M33.01,32.73c-4.34,4.34-7.03,10.351-7.03,16.98s2.69,12.63,7.03,16.979L49.98,49.71L33.01,32.73z"/>
<path fill="#5ECCDC" d="M66.96,32.73C62.62,28.39,56.61,25.7,49.98,25.7S37.35,28.39,33,32.73l16.98,16.98L66.96,32.73z"/>
<path fill="#2F80B7" d="M73.99,49.71c0-6.63-2.69-12.63-7.03-16.98L49.98,49.71L66.96,66.69C71.31,62.34,73.99,56.34,73.99,49.71z"
	/>
<path fill="#5AA7CF" d="M33.01,66.69c4.34,4.341,10.35,7.03,16.98,7.03c6.63,0,12.63-2.689,16.98-7.03L49.98,49.71L33.01,66.69z"/>
<path d="M40.68,49.71c-0.002-5.137,4.159-9.302,9.295-9.305c5.136-0.002,9.302,4.159,9.304,9.296c0,0.003,0,0.006,0,0.009
	c0.002,5.136-4.159,9.302-9.295,9.305c-5.136,0.002-9.302-4.16-9.304-9.296C40.68,49.716,40.68,49.713,40.68,49.71"/>
<path fill="#FFFFFF" d="M42.52,46.57c0-2.062,1.672-3.734,3.735-3.734c2.063,0,3.735,1.672,3.735,3.734
	c0,2.063-1.672,3.735-3.735,3.735C44.192,50.305,42.52,48.633,42.52,46.57"/>
<path fill="#1E1E1E" d="M24.5,112.82c0,3.15,2.56,5.711,5.71,5.711h6.85c3.15,0,5.71-2.561,5.71-5.711l0,0
	c0-3.149-2.56-5.71-5.71-5.71h-6.85C27.06,107.11,24.5,109.66,24.5,112.82L24.5,112.82z"/>
<path fill="#5F4A48" d="M42.78,112.82c0,3.15,2.56,5.711,5.71,5.711h6.85c3.15,0,5.71-2.561,5.71-5.711l0,0
	c0-3.149-2.56-5.71-5.71-5.71h-6.85C45.33,107.11,42.78,109.66,42.78,112.82L42.78,112.82z"/>
<path fill="#1E1E1E" d="M61.05,112.82c0,3.15,2.56,5.711,5.71,5.711h6.85c3.15,0,5.71-2.561,5.71-5.711l0,0
	c0-3.149-2.56-5.71-5.71-5.71h-6.85C63.6,107.11,61.05,109.66,61.05,112.82L61.05,112.82z"/>
<path fill="#3D3D3D" d="M79.32,85.62L64,69.2c0,0,5.14-5.94,15.32-5.94C79.32,74.83,79.32,85.62,79.32,85.62z"/>
<path fill="#E4BE88" d="M125.63,38.84l33.011,33.01l-33.011,33.01L92.62,71.85L125.63,38.84z"/>
<path fill="#5F4A48" d="M92.62,71.84h66.01l-33.01,33.01L92.62,71.84z"/>
<path fill="#7B5F5E" d="M79.32,12h48.28v95.109H79.32V12z"/>
<path fill="#1E1E1E" d="M94.641,33.031L132.66,0v51.95L94.641,33.031z"/>
<path fill="#2F80B7" d="M125.63,32.73c4.341,4.34,7.03,10.351,7.03,16.98s-2.689,12.63-7.03,16.979L108.65,49.71L125.63,32.73z"/>
<path fill="#5ECCDC" d="M91.67,32.73c4.34-4.34,10.35-7.029,16.98-7.029c6.629,0,12.629,2.689,16.979,7.029L108.65,49.71
	L91.67,32.73z"/>
<path fill="#1FA8CC" d="M84.641,49.71c0-6.63,2.689-12.63,7.029-16.98l16.98,16.98L91.67,66.69
	C87.33,62.34,84.641,56.34,84.641,49.71z"/>
<path fill="#5AA7CF" d="M125.63,66.69c-4.34,4.341-10.351,7.03-16.979,7.03c-6.631,0-12.631-2.689-16.98-7.03l16.98-16.979
	L125.63,66.69z"/>
<path d="M99.348,49.71c-0.003-5.138,4.158-9.305,9.297-9.309c5.137-0.003,9.305,4.159,9.308,9.296c0,0.005,0,0.009,0,0.013
	c0,5.137-4.165,9.302-9.302,9.302C103.513,59.012,99.348,54.847,99.348,49.71"/>
<path fill="#FFFFFF" d="M101.48,46.57c0-2.062,1.672-3.734,3.734-3.734s3.735,1.672,3.735,3.734c0,2.063-1.673,3.735-3.735,3.735
	S101.48,48.633,101.48,46.57"/>
<path fill="#5F4A48" d="M134.13,112.82c0,3.15-2.56,5.711-5.71,5.711h-6.85c-3.15,0-5.711-2.561-5.711-5.711l0,0
	c0-3.149,2.561-5.71,5.711-5.71h6.85C131.58,107.11,134.13,109.66,134.13,112.82L134.13,112.82z"/>
<path fill="#1E1E1E" d="M115.859,112.82c0,3.15-2.56,5.711-5.709,5.711H103.3c-3.149,0-5.71-2.561-5.71-5.711l0,0
	c0-3.149,2.561-5.71,5.71-5.71h6.851C113.3,107.11,115.859,109.66,115.859,112.82L115.859,112.82z"/>
<path fill="#5F4A48" d="M97.59,112.82c0,3.15-2.561,5.711-5.71,5.711h-6.851c-3.149,0-5.709-2.561-5.709-5.711l0,0
	c0-3.149,2.56-5.71,5.709-5.71h6.851C95.029,107.11,97.59,109.66,97.59,112.82L97.59,112.82z"/>
<path d="M79.32,85.62L94.641,69.2c0,0-5.141-5.94-15.321-5.94C79.32,74.83,79.32,85.62,79.32,85.62z"/>
</svg>
