<?xml version="1.0" encoding="utf-8"?>
<!-- Generator: Adobe Illustrator 16.0.0, SVG Export Plug-In . SVG Version: 6.00 Build 0)  -->
<!DOCTYPE svg PUBLIC "-//W3C//DTD SVG 1.1//EN" "http://www.w3.org/Graphics/SVG/1.1/DTD/svg11.dtd">
<svg version="1.1" id="Layer_1" xmlns="http://www.w3.org/2000/svg" xmlns:xlink="http://www.w3.org/1999/xlink" x="0px" y="0px"
	 width="189.7px" height="101.6px" viewBox="0 0 189.7 101.6" enable-background="new 0 0 189.7 101.6" xml:space="preserve">
<path display="none" fill="#732B1F" d="M-123.2,408.7c-5.5,0-10.8,0.7-15.8,2l1.9,7.2l2.3,10.3c0,0-6.3,0.1-6.3,6.399
	c0,6.301,7.7,5.301,7.7,5.301s36.1,0,57.4,0C-78.9,422.3-99,408.7-123.2,408.7z"/>
<path fill="#715077" d="M65.351,30.6c0,0-34.9,11.5-34.9,35.699c0,16.9,0,24.9,0,24.9h120.6l-3.8-7.5l-33.601-53.2h-48.3V30.6z"/>
<path fill="#9A7998" d="M60.251,36.999c0,9.5,3.6,19,10.8,26.2s16.7,10.8,26.2,10.8v-37H60.251z"/>
<path fill="#A97DD9" d="M97.251-0.001c-9.5,0-19,3.601-26.2,10.8c-7.2,7.2-10.8,16.7-10.8,26.2h37V-0.001L97.251-0.001z"/>
<path fill="#715077" d="M123.452,10.799c-7.2-7.199-16.7-10.8-26.2-10.8v37h37C134.251,27.499,130.651,17.999,123.452,10.799z"/>
<path fill="#4F4083" d="M97.251,73.999c9.5,0,19-3.6,26.2-10.8c7.199-7.2,10.8-16.7,10.8-26.2h-37V73.999z"/>
<circle fill="#4E3654" cx="97.251" cy="37" r="21.9"/>
<path fill="#4B4375" d="M97.251,15.1c12.1,0,21.899,9.8,21.899,21.899H75.251C75.351,24.9,85.151,15.1,97.251,15.1z"/>
<path fill="#433745" d="M123.452,51.799c4.1,4.101,9.899,6.7,16.199,6.7c6.301,0,12-2.6,16.2-6.7l-16.2-16.199L123.452,51.799z"/>
<path fill="#4E3654" d="M123.452,19.499c-4.101,4.101-6.7,9.9-6.7,16.2s2.6,12,6.7,16.2l16.199-16.2L123.452,19.499z"/>
<path fill="#4F4083" d="M139.651,12.799c-6.3,0-12,2.601-16.199,6.7l16.199,16.2l16.2-16.2
	C151.651,15.299,145.952,12.799,139.651,12.799z"/>
<path fill="#7B73BD" d="M155.751,51.799c4.1-4.1,6.7-9.899,6.7-16.199c0-6.301-2.601-12-6.7-16.2l-16.2,16.2L155.751,51.799z"/>
<path fill="#A97DD9" d="M142.051,33.499h-39.9c0,0-1.699,57.9,50.5,57.9c19.801,0,30.2-16,30.2-16l-2.5-2.4
	C180.251,72.9,143.551,78.6,142.051,33.499z"/>
<circle fill="#3D3D3D" cx="184.151" cy="70.499" r="5.5"/>
<circle cx="134.251" cy="58.6" r="4"/>
<circle fill="#FFFFFF" cx="134.251" cy="58.599" r="2.3"/>
<path fill="#7B73BD" d="M87.051,96.499c0,2.8,2.5,5.101,5.5,5.101h45.7c3.1,0,5.5-2.301,5.5-5.101l0,0c0-2.8-2.5-5.1-5.5-5.1h-45.7
	C89.551,91.299,87.051,93.6,87.051,96.499L87.051,96.499z"/>
<path fill="#433745" d="M25.551,96.499c0,2.8,2.3,5.101,5.1,5.101h61.4c2.8,0,5.1-2.301,5.1-5.101l0,0c0-2.8-2.3-5.1-5.1-5.1h-61.4
	C27.851,91.299,25.551,93.6,25.551,96.499L25.551,96.499z"/>
<path fill="#A97DD9" d="M8.751,58.499c0.5,6.9,4.7,9.2,9.3,11.5c4,2,9.3,1.9,12,1.9h0.4v9.1h-0.4c-3.1,0-9.6,1.8-14.9-0.899
	c-3.1-1.601-5.3-5.2-7.1-8.101c-2.1-3.3-3.8-5-3.7-13.5H8.751z"/>
<path fill="#4E3654" d="M0.051,58.499h4.3c0,8.4,3.2,13.7,9.5,18.101c6.2,4.399,14.5,3.6,16.6,3.6v9.4c-2.5,0-10-0.5-17.9-4.9
	C3.751,79.699-0.049,71.4,0.051,58.499z"/>
<path fill="#4F4083" d="M54.651,35.4v56h-24.2c0,0,0-8,0-24.9C30.451,50.999,44.451,40.799,54.651,35.4z"/>
</svg>
