<?xml version="1.0" encoding="utf-8"?>
<!-- Generator: Adobe Illustrator 16.0.0, SVG Export Plug-In . SVG Version: 6.00 Build 0)  -->
<!DOCTYPE svg PUBLIC "-//W3C//DTD SVG 1.1//EN" "http://www.w3.org/Graphics/SVG/1.1/DTD/svg11.dtd">
<svg version="1.1" id="Layer_1" xmlns="http://www.w3.org/2000/svg" xmlns:xlink="http://www.w3.org/1999/xlink" x="0px" y="0px"
	 width="139.139px" height="118.949px" viewBox="0 0 139.139 118.949" enable-background="new 0 0 139.139 118.949"
	 xml:space="preserve">
<g>
	<path fill="#E96729" d="M1.926,17.687c0.141,0.039,0.097,0.079,0.235,0.119c0.105,0.03,0.135,0.054,0.135,0.086v0.004
		c0,0.029,0.263,0.055,0.36,0.085c0.661,0.203,1.346,0.423,1.99,0.66c0.05,0.019,0.115,0.04,0.165,0.059
		c0.583,0.218,1.166,0.45,1.733,0.696c0.157,0.068,0.314,0.141,0.471,0.211c0.464,0.208,0.925,0.423,1.378,0.65
		c0.17,0.085,0.34,0.172,0.508,0.26c0.444,0.23,0.883,0.469,1.316,0.716c0.152,0.087,0.305,0.172,0.454,0.261
		c0.477,0.281,0.945,0.572,1.408,0.873c0.094,0.061,0.19,0.12,0.284,0.182c1.153,0.765,2.261,1.59,3.32,2.475l0,0
		c0.514,0.43,1.015,0.875,1.505,1.332c0.073,0.068,0.145,0.139,0.218,0.208c0.107,0.101,0.213,0.202,0.319,0.304l16.646-7.664
		l-4.551,15.289c7.81-2.061,16.475-3.921,27.475-4.703V0.026C25.295,0.569,9.507,10.359,1.926,17.687z"/>
	<path fill="#E96729" d="M69.584,0.472c-0.319-0.03-0.644-0.055-0.966-0.082C68.94,0.417,69.265,0.441,69.584,0.472z"/>
	<path fill="#E96729" d="M70.295,0.498v28.993c4,0.286,9,1.252,13,2.75V2.79C79.295,1.734,74.295,0.957,70.295,0.498z"/>
	<path fill="#E96729" d="M93.838,6.205c0.452,0.181,0.898,0.368,1.344,0.556C94.736,6.572,94.29,6.385,93.838,6.205z"/>
	<path fill="#E96729" d="M96.295,7.223v33.296c7,7.016,10.563,16.218,10.563,25.258c0,17.584-6.782,23.062-15.308,23.062
		c-2.104,0-7.713,0-14.962,0c-13.708,0-33.285,0-46.199,0c0.001,0-0.095,0.494-0.095,0.536v5.981c0,4.664-3.681,8.483-8.345,8.483
		h-8.967H4.017v-0.019c-1.166,0-2.277-0.246-3.287-0.674c-0.017-0.006-0.03-0.02-0.046-0.026C0.256,104.459,0,106.127,0,107.922
		c0,12.902,15.867,10.918,15.867,10.918s13.429,0,30.429,0v-30h13v30c3,0,7,0,11,0v-30h13v30c11,0,20.733,0,25.551,0
		c16.89,0,30.293-11.39,30.293-46.225C139.138,47.027,125.295,19.811,96.295,7.223z"/>
	<path fill="#E96729" d="M59.583,0c-0.937,0-1.856,0.01-2.768,0.026C57.726,0.01,58.646,0,59.583,0z"/>
	<path fill="#E96729" d="M64.096,0.1c0.187,0.008,0.378,0.012,0.563,0.021C64.474,0.112,64.284,0.108,64.096,0.1z"/>
	<path fill="#E96729" d="M85.416,3.374c0.77,0.213,1.53,0.435,2.282,0.667C86.946,3.809,86.184,3.588,85.416,3.374z"/>
	<path fill="#E96729" d="M90.239,4.86c0.47,0.162,0.928,0.337,1.391,0.506C91.167,5.197,90.709,5.022,90.239,4.86z"/>
</g>
</svg>
