<?xml version="1.0" encoding="utf-8"?>
<!-- Generator: Adobe Illustrator 19.1.0, SVG Export Plug-In . SVG Version: 6.00 Build 0)  -->
<svg version="1.2" baseProfile="tiny" id="Layer_1" xmlns="http://www.w3.org/2000/svg" xmlns:xlink="http://www.w3.org/1999/xlink"
	 x="0px" y="0px" width="37.305px" height="59.849px" viewBox="0 0 37.305 59.849" xml:space="preserve">
<path fill="#F26C27" d="M3.83,58.16c0,-4.66 3.78,-8.43 8.43,-8.43h8.95h4.32c7.24,-6.8 11.77,-16.46 11.77,-27.18c0,-8.47 -2.83,-16.28 -7.59,-22.54l-0,-0L19.62,11.17c0.91,0.86 1.48,2.08 1.48,3.43c0,2.62 -2.12,4.74 -4.74,4.74c-1.18,0 -2.25,-0.45 -3.08,-1.16L9.33,22.54h1.34L0,34.34v25.51c1.29,0 2.57,-0.07 3.83,-0.19L3.83,58.16z"/>
</svg>
