<?xml version="1.0" encoding="utf-8"?>
<!-- Generator: Adobe Illustrator 19.1.0, SVG Export Plug-In . SVG Version: 6.00 Build 0)  -->
<svg version="1.2" baseProfile="tiny" id="Layer_1" xmlns="http://www.w3.org/2000/svg" xmlns:xlink="http://www.w3.org/1999/xlink"
	 x="0px" y="0px" width="37.305px" height="59.851px" viewBox="0 0 37.305 59.851" xml:space="preserve">
<path fill="#B14B29" d="M37.31,59.85L37.31,34.34L26.64,22.55h1.34l-4.04,-4.47c-0.85,0.78 -1.96,1.27 -3.2,1.27c-2.62,0 -4.74,-2.12 -4.74,-4.74c0,-1.41 0.63,-2.66 1.61,-3.53L7.6,0.01l-0.01,-0.01c0,-0 -0,0.01 -0,0.01C2.83,6.27 0,14.08 0,22.55c0,10.72 4.53,20.38 11.77,27.18h13.28c4.66,0 8.43,3.78 8.43,8.43v1.5c1.26,0.13 2.54,0.19 3.83,0.19"/>
</svg>
