<?xml version="1.0" encoding="utf-8"?>
<!-- Generator: Adobe Illustrator 19.1.0, SVG Export Plug-In . SVG Version: 6.00 Build 0)  -->
<svg version="1.2" baseProfile="tiny" id="Layer_1" xmlns="http://www.w3.org/2000/svg" xmlns:xlink="http://www.w3.org/1999/xlink"
	 x="0px" y="0px" width="59.53px" height="37.499px" viewBox="0 0 59.53 37.499" xml:space="preserve">
<path fill="#FD9426" d="M13.16,24.653c2.623,0,4.75,2.127,4.75,4.75c0,1.381-0.599,2.682-1.541,3.55l4.049,4.546h18.693l3.954-4.441
	c-1.013-0.871-1.668-2.181-1.668-3.621c0-2.623,2.127-4.767,4.75-4.767c1.269,0,2.415,0.496,3.267,1.307L59.53,14.786
	C52.706,5.805,41.915,0,29.765,0C17.615,0,6.824,5.802,0,14.783l10.02,11.081C10.859,25.12,11.951,24.653,13.16,24.653z"/>
<path fill="#B14B29" d="M40.448,1.551c-2.522-0.752-5.156-1.243-7.871-1.445v21.43h7.871V1.551z"/>
<path fill="#732B1F" d="M19.082,1.551v19.985h7.871V0.106C24.238,0.309,21.604,0.8,19.082,1.551z"/>
</svg>
