<?xml version="1.0" encoding="utf-8"?>
<!-- Generator: Adobe Illustrator 16.0.0, SVG Export Plug-In . SVG Version: 6.00 Build 0)  -->
<svg version="1.2" baseProfile="tiny" id="Layer_1" xmlns="http://www.w3.org/2000/svg" xmlns:xlink="http://www.w3.org/1999/xlink"
	 x="0px" y="0px" width="189.689px" height="118.516px" viewBox="0 0 189.689 118.516" xml:space="preserve">
<path fill="#E96729" d="M46.389,25.645c0,0,10.86-25.645,63.906-25.645s79.394,37.589,79.394,72.367
	c0,34.777-13.35,46.02-30.212,46.02s-92.827,0-92.827,0s-15.841,2.108-15.841-10.773c0-12.881,12.852-13.114,12.852-13.114
	l-4.743-21.078L46.389,25.645z"/>
<path fill="#732B1F" d="M133.905,2.776v46.166h12.979V7.183C142.846,5.408,138.517,3.927,133.905,2.776z"/>
<path fill="#732B1F" d="M110.296,0c-0.935,0-1.854,0.01-2.764,0.025v40.099h12.98V0.491C117.223,0.171,113.82,0,110.296,0z"/>
<path fill="#B14B29" d="M57.601,42.29c0,0,27.522-12.945,59.783-12.945c26.778,0,40.078,18.975,40.078,36.531
	c0,17.556-6.738,23.23-15.251,23.23c-8.512,0-74.383,0-74.383,0s-7.997,1.064-7.997-5.438s6.488-6.621,6.488-6.621l-2.395-10.64
	L57.601,42.29z"/>
<path display="none" fill="#732B1F" d="M78.783,56.887c-5.533,0-10.841,0.713-15.781,2.008l1.878,7.16l2.312,10.272
	c0,0-6.263,0.113-6.263,6.392c0,6.277,7.72,5.25,7.72,5.25s36.069,0,57.389,0C123.058,70.442,103.045,56.887,78.783,56.887z"/>
<g>
	<polygon fill="#732B1F" points="9.067,48.108 36.948,36.182 0,19.171 	"/>
	<polygon fill="#732B1F" points="48.176,36.182 76.057,48.108 85.124,19.171 	"/>
</g>
<circle fill="#B14B29" cx="42.562" cy="53.616" r="37.305"/>
<path fill="#F26C27" d="M79.867,53.616c0-20.604-16.702-37.306-37.305-37.306V90.92C63.165,90.921,79.867,74.219,79.867,53.616z"/>
<path fill="#FD9426" d="M42.562,63.936l29.717-32.865c-6.813-8.966-17.587-14.76-29.717-14.76s-22.904,5.793-29.717,14.76
	L42.562,63.936z"/>
<polygon fill="#732B1F" points="53.228,53.616 42.562,65.412 31.896,53.616 "/>
<circle cx="25.984" cy="45.669" r="4.743"/>
<circle fill="#FFFFFF" cx="25.984" cy="45.669" r="2.999"/>
<circle cx="58.918" cy="45.669" r="4.743"/>
<circle fill="#FFFFFF" cx="58.918" cy="45.669" r="2.999"/>
<path fill="#F26C27" d="M38.736,95.202c0,4.655-3.775,8.431-8.431,8.431H12.4c-4.656,0-8.431-3.775-8.431-8.431V89.23
	c0-4.655,3.774-8.431,8.431-8.431h17.904c4.655,0,8.431,3.775,8.431,8.431L38.736,95.202L38.736,95.202z"/>
<path fill="#B14B29" d="M81.155,95.202c0,4.655-3.775,8.431-8.431,8.431H54.82c-4.656,0-8.431-3.775-8.431-8.431V89.23
	c0-4.655,3.774-8.431,8.431-8.431h17.904c4.655,0,8.431,3.775,8.431,8.431V95.202z"/>
<path fill="#732B1F" d="M109.787,118.388H96.807c0-9.761-0.001-19.522-0.001-29.284c4.324,0.001,8.649,0.003,12.975,0.004
	C109.783,98.868,109.785,108.628,109.787,118.388z"/>
<path fill="#732B1F" d="M133.766,118.356h-12.979c-0.001-9.75-0.001-19.5-0.002-29.251c4.327,0,8.653,0.001,12.98,0.001
	C133.765,98.856,133.766,108.606,133.766,118.356z"/>
<path fill="#FD9426" d="M21.353,80.799H12.4c-4.656,0-8.431,3.775-8.431,8.431v5.973c0,4.655,3.774,8.431,8.431,8.431h8.952
	L21.353,80.799L21.353,80.799z"/>
<path fill="#FD9426" d="M63.772,80.799H54.82c-4.656,0-8.431,3.775-8.431,8.431v5.973c0,4.655,3.774,8.431,8.431,8.431h8.952V80.799
	z"/>
<path fill="#B14B29" d="M53.228,17.862c-2.519-0.751-5.148-1.24-7.858-1.442v21.396h7.858V17.862z"/>
<path fill="#732B1F" d="M31.896,17.862v19.953h7.857V16.42C37.044,16.622,34.414,17.112,31.896,17.862z"/>
<path fill="#732B1F" d="M68.24,81.171h4.467c4.455,0,8.069,4,8.134,8c12.446,0,31.318,0,44.531,0
	c-2.926-17-22.262-30.561-45.919-31.049C78.654,67.184,74.501,76.171,68.24,81.171z"/>
</svg>
