<?xml version="1.0" encoding="utf-8"?>
<!-- Generator: Adobe Illustrator 19.1.0, SVG Export Plug-In . SVG Version: 6.00 Build 0)  -->
<svg version="1.2" baseProfile="tiny" id="Layer_1" xmlns="http://www.w3.org/2000/svg" xmlns:xlink="http://www.w3.org/1999/xlink"
	 x="0px" y="0px" width="41.221px" height="43.559px" viewBox="0 0 41.221 43.559" xml:space="preserve">
	 <path fill-rule="evenodd"
        d="M34.93,0l-29.9,6.23l22.02,19.31l0.09,-0.13z"
        fill="#B8DC7C"/>
    <path fill-rule="evenodd"
        d="M27.14,25.42l14.08,-21.44l-6.29,-3.98z"
        fill="#536E38"/>
    <path fill-rule="evenodd"
        d="M7.61,41.62l-3.17,-14.46l-4.4,0.38l5.82,15.33l2.33,0.69z"
        fill="#C9D825"/>
    <path fill-rule="evenodd"
        d="M8.2,43.56l20.11,-5.23l-20.69,3.29z"
        fill="#B8DC6B"/>
    <path fill-rule="evenodd"
        d="M1.24,21.9l-1.24,5.5l0.05,0.14l4.4,-0.38l22.55,-1.53z"
        fill="#83B000"/>
    <path fill-rule="evenodd"
        d="M2.96,14.33l-1.71,7.57l25.75,3.73l0.05,-0.08z"
        fill="#C7D922"/>
    <path fill-rule="evenodd"
        d="M5.03,5.17l-2.07,9.17l24.09,11.22l0,-0.01z"
        fill="#546E38"/>
</svg>
