<?xml version="1.0" encoding="utf-8"?>
<!-- Generator: Adobe Illustrator 16.0.0, SVG Export Plug-In . SVG Version: 6.00 Build 0)  -->
<!DOCTYPE svg PUBLIC "-//W3C//DTD SVG 1.1//EN" "http://www.w3.org/Graphics/SVG/1.1/DTD/svg11.dtd">
<svg version="1.1" id="Layer_1" xmlns="http://www.w3.org/2000/svg" xmlns:xlink="http://www.w3.org/1999/xlink" x="0px" y="0px"
	 width="138.9px" height="118.5px" viewBox="0 0 138.9 118.5" enable-background="new 0 0 138.9 118.5" xml:space="preserve">
<g>
	<path fill="#E96729" d="M68.6,0.437c0.3,0,0.699,0.101,1,0.101v29c5,0.3,9.399,1.199,13.399,2.699V2.837
		C78.6,1.637,73.7,0.837,68.6,0.437z"/>
	<path fill="#E96729" d="M30.4,89.137v6c0,4.7-3.8,8.4-8.4,8.4h-9H4.1H4c-1.2,0-2.3-0.2-3.3-0.7c-0.5,1.399-0.7,2.899-0.7,4.8
		c0,12.9,15.8,10.8,15.8,10.8s13.4,0,30.2,0c0-9.8,0-19.5,0-29.3C40.4,89.137,35.1,89.137,30.4,89.137z"/>
	<path fill="#E96729" d="M1.9,17.437c6.1,1.7,11.6,4.9,16,9.2l16.5-7.7l-4.8,15.5c7.8-2,17.1-3.899,27.1-4.7v-29.8
		C25.4,0.637,9.4,10.236,1.9,17.437z"/>
	<path fill="#E96729" d="M59.1,89.137c0,9.7,0,19.5,0,29.3c3.699,0,7.399,0,11,0c0-9.8,0-19.5,0-29.3
		C66.6,89.137,62.9,89.137,59.1,89.137z"/>
	<path fill="#E96729" d="M96.1,7.236v33.301c7.1,7,10.6,16.399,10.6,25.399c0,17.5-6.7,23.2-15.3,23.2c-1.4,0-4.3,0-8.3,0
		c0,9.7,0,19.6,0,29.3c11.199,0,20.8,0,25.6,0c16.8,0,30.2-11.2,30.2-46C138.8,46.837,124.6,19.837,96.1,7.236z"/>
</g>
</svg>
