<?xml version="1.0" encoding="utf-8"?>
<!-- Generator: Adobe Illustrator 16.0.0, SVG Export Plug-In . SVG Version: 6.00 Build 0)  -->
<!DOCTYPE svg PUBLIC "-//W3C//DTD SVG 1.1//EN" "http://www.w3.org/Graphics/SVG/1.1/DTD/svg11.dtd">
<svg version="1.1" id="Layer_1" xmlns="http://www.w3.org/2000/svg" xmlns:xlink="http://www.w3.org/1999/xlink" x="0px" y="0px"
	 width="37.4px" height="59.9px" viewBox="0 0 37.4 59.9" enable-background="new 0 0 37.4 59.9" xml:space="preserve">
<path fill="#F26C27" d="M29.898,0l-0.2,0.2l-10,11c0.9,0.9,1.4,2,1.4,3.4c0,2.6-2.101,4.699-4.7,4.699c-1.2,0-2.2-0.399-3-1.1
	l-4,4.4h1.2L-0.002,34.4v25.5c1.3,0,2.601-0.101,3.9-0.2v-1.5c0-4.6,3.7-8.4,8.399-8.4h0.101h8.899h4.301
	c7.3-6.8,11.8-16.5,11.8-27.3C37.498,14.1,34.598,6.3,29.898,0z"/>
</svg>
