<?xml version="1.0" encoding="utf-8"?>
<!-- Generator: Adobe Illustrator 16.0.0, SVG Export Plug-In . SVG Version: 6.00 Build 0)  -->
<!DOCTYPE svg PUBLIC "-//W3C//DTD SVG 1.1//EN" "http://www.w3.org/Graphics/SVG/1.1/DTD/svg11.dtd">
<svg version="1.1" id="Layer_1" xmlns="http://www.w3.org/2000/svg" xmlns:xlink="http://www.w3.org/1999/xlink" x="0px" y="0px"
	 width="16.5px" height="22.9px" viewBox="0 0 16.5 22.9" enable-background="new 0 0 16.5 22.9" xml:space="preserve">
<path display="none" fill="#E96729" d="M-444.7,797c0,0,10.9-25.6,63.9-25.6s79.4,37.6,79.4,72.399s-13.4,46-30.2,46
	c-16.8,0-92.8,0-92.8,0s-15.8,2.101-15.8-10.8s12.9-13.1,12.9-13.1L-432,844.8L-444.7,797z"/>
<path display="none" fill="#732B1F" d="M-357.2,774.099v46.2h13v-41.8C-348.3,776.8-352.6,775.3-357.2,774.099z"/>
<path display="none" fill="#732B1F" d="M-380.8,771.4c-0.9,0-1.9,0-2.8,0v40.1h13v-39.6C-373.9,771.5-377.3,771.4-380.8,771.4z"/>
<path display="none" fill="#B14B29" d="M-433.5,813.7c0,0,27.5-12.9,59.8-12.9c26.8,0,40.1,19,40.1,36.5s-6.7,23.2-15.3,23.2
	c-8.5,0-74.4,0-74.4,0s-8,1.1-8-5.4s6.5-6.6,6.5-6.6l-2.4-10.6L-433.5,813.7z"/>
<polygon display="none" fill="#732B1F" points="-481.9,819.4 -454.1,807.5 -491,790.4 "/>
<circle display="none" fill="#B14B29" cx="-448.4" cy="824.9" r="37.3"/>
<path fill="#732B1F" d="M0,7.8c1.4,1.3,2.6,2.7,3.7,4.2l0,0c2.5,3.3,4.4,7,5.7,10.9L16.5,0L0,7.8z"/>
<polygon display="none" fill="#732B1F" points="-437.8,824.9 -448.4,836.7 -459.1,824.9 "/>
<circle display="none" cx="-465" cy="816.9" r="4.7"/>
<circle display="none" fill="#FFFFFF" cx="-465" cy="816.9" r="3"/>
<circle display="none" cx="-432.1" cy="816.9" r="4.7"/>
<circle display="none" fill="#FFFFFF" cx="-432.1" cy="816.9" r="3"/>
<path display="none" fill="#F26C27" d="M-452.3,866.5c0,4.7-3.8,8.4-8.4,8.4h-17.9c-4.7,0-8.4-3.801-8.4-8.4v-6
	c0-4.7,3.8-8.4,8.4-8.4h17.9c4.7,0,8.4,3.801,8.4,8.4V866.5L-452.3,866.5z"/>
<path display="none" fill="#B14B29" d="M-409.8,866.5c0,4.7-3.8,8.4-8.4,8.4h-17.9c-4.7,0-8.4-3.801-8.4-8.4v-6
	c0-4.7,3.8-8.4,8.4-8.4h17.9c4.7,0,8.4,3.801,8.4,8.4V866.5z"/>
<path display="none" fill="#732B1F" d="M-381.2,889.8h-13c0-9.8,0-19.6,0-29.399c4.3,0,8.6,0,13,0
	C-381.2,870.099-381.2,880-381.2,889.8z"/>
<path display="none" fill="#732B1F" d="M-357.2,889.8h-13c0-9.899,0-19.5,0-29.399c4.3,0,8.7,0,13,0
	C-357.2,870.099-357.2,880-357.2,889.8z"/>
<path display="none" fill="#FD9426" d="M-469.6,852.099h-9c-4.7,0-8.4,3.801-8.4,8.4v6c0,4.7,3.8,8.4,8.4,8.4h9V852.099
	L-469.6,852.099z"/>
<path display="none" fill="#FD9426" d="M-427.2,852.099h-9c-4.7,0-8.4,3.801-8.4,8.4v6c0,4.7,3.8,8.4,8.4,8.4h9V852.099z"/>
<path display="none" fill="#B14B29" d="M-437.8,789.099c-2.5-0.8-5.1-1.199-7.9-1.399v21.399h7.9V789.099z"/>
<path display="none" fill="#732B1F" d="M-459.1,789.099v20h7.9V787.7C-454,787.9-456.6,788.4-459.1,789.099z"/>
<path display="none" fill="#732B1F" d="M-422.9,852.099h4.7c5,0.2,8.4,4.101,8.4,8.301c12.4,0,31,0,44.2,0
	c-2.9-17-22.1-30.5-45.8-31C-412.4,838.599-417,846.4-422.9,852.099z"/>
</svg>
