<?xml version="1.0" encoding="utf-8"?>
<!-- Generator: Adobe Illustrator 19.1.0, SVG Export Plug-In . SVG Version: 6.00 Build 0)  -->
<svg version="1.2" baseProfile="tiny" id="Layer_1" xmlns="http://www.w3.org/2000/svg" xmlns:xlink="http://www.w3.org/1999/xlink"
	 x="0px" y="0px" width="163.074px" height="147.082px" viewBox="0 0 163.074 147.082" xml:space="preserve">
<g>
	<polygon fill="#579E5C" points="41.374,147.082 115.342,102.509 34.638,123.509 	"/>
	<polygon fill="#626874" points="61.616,134.883 73.019,147.082 41.374,147.082 	"/>
	<polygon fill="#509662" points="34.638,123.509 36.599,130.373 115.342,102.509 	"/>
	<polygon fill="#84D24A" points="60.804,57.466 0,136.11 115.342,102.509 121.116,57.466 	"/>
	<g>
		<g>
			<polygon fill="#A5D62D" points="105.143,0.055 0,136.11 121.116,57.466 127.927,0.055 			"/>
			<path fill="#F12026" d="M127.934,0l-0.007,0.055h1.932C129.221,0.02,128.58,0,127.934,0z"/>
		</g>
		<circle fill="#161B04" cx="112.004" cy="15.077" r="6.956"/>
		<circle fill="#FFFFFF" cx="112.003" cy="15.077" r="3.339"/>
		<g>
			<polygon fill="#D6A22D" points="121.116,57.466 144.029,45.664 124.985,24.866 			"/>
			<path fill="#D73B2C" d="M163.074,35.142c0-18.762-14.704-34.087-33.216-35.087h-1.932l-2.942,24.811l29.852,32.6h0.236
				C160.069,51.396,163.074,43.619,163.074,35.142z"/>
		</g>
	</g>
</g>
</svg>
