<?xml version="1.0" encoding="utf-8"?>
<!-- Generator: Adobe Illustrator 16.0.0, SVG Export Plug-In . SVG Version: 6.00 Build 0)  -->
<!DOCTYPE svg PUBLIC "-//W3C//DTD SVG 1.1//EN" "http://www.w3.org/Graphics/SVG/1.1/DTD/svg11.dtd">
<svg version="1.1" id="Layer_1" xmlns="http://www.w3.org/2000/svg" xmlns:xlink="http://www.w3.org/1999/xlink" x="0px" y="0px"
	 width="37.9px" height="11.6px" viewBox="0 0 37.9 11.6" enable-background="new 0 0 37.9 11.6" xml:space="preserve">
<path fill="#D54243" d="M25.6,5.8c0,3.2-2.601,5.801-5.801,5.801h-14C2.6,11.601,0,8.999,0,5.8l0,0C0,2.6,2.6,0,5.8,0h14
	C23,0,25.6,2.6,25.6,5.8L25.6,5.8z"/>
<path fill="#FF5B49" d="M37.9,5.8c0,3.2-2.601,5.801-5.8,5.801h-14c-3.2,0-5.801-2.602-5.801-5.801l0,0C12.3,2.6,14.9,0,18.1,0h14
	C35.3,0,37.9,2.6,37.9,5.8L37.9,5.8z"/>
</svg>
