<?xml version="1.0" encoding="utf-8"?>
<!-- Generator: Adobe Illustrator 16.0.0, SVG Export Plug-In . SVG Version: 6.00 Build 0)  -->
<!DOCTYPE svg PUBLIC "-//W3C//DTD SVG 1.1//EN" "http://www.w3.org/Graphics/SVG/1.1/DTD/svg11.dtd">
<svg version="1.1" id="Layer_1" xmlns="http://www.w3.org/2000/svg" xmlns:xlink="http://www.w3.org/1999/xlink" x="0px" y="0px"
	 width="16.6px" height="22.8px" viewBox="0 0 16.6 22.8" enable-background="new 0 0 16.6 22.8" xml:space="preserve">
<path display="none" fill="#E96729" d="M-444.7,797.099c0,0,10.9-25.6,63.9-25.6s79.399,37.6,79.399,72.4s-13.399,46-30.2,46
	c-16.8,0-92.8,0-92.8,0s-15.8,2.1-15.8-10.801c0-12.898,12.9-13.1,12.9-13.1l-4.7-21.1L-444.7,797.099z"/>
<path display="none" fill="#732B1F" d="M-357.2,774.201V820.4h13v-41.801C-348.3,776.9-352.6,775.4-357.2,774.201z"/>
<path display="none" fill="#732B1F" d="M-380.8,771.5c-0.9,0-1.9,0-2.801,0v40.1h13V772C-373.9,771.599-377.3,771.5-380.8,771.5z"/>
<path display="none" fill="#B14B29" d="M-433.5,813.8c0,0,27.5-12.9,59.8-12.9c26.8,0,40.1,19,40.1,36.5s-6.699,23.199-15.3,23.199
	c-8.5,0-74.399,0-74.399,0s-8,1.102-8-5.398s6.5-6.602,6.5-6.602l-2.4-10.6L-433.5,813.8z"/>
<path fill="#732B1F" d="M12.9,11.9L12.9,11.9C14,10.4,15.3,9,16.6,7.701L0,0L7.2,22.8C8.4,18.8,10.4,15.201,12.9,11.9z"/>
<polygon display="none" fill="#732B1F" points="-437.8,825 -448.4,836.8 -459.1,825 "/>
<circle display="none" cx="-465" cy="817" r="4.7"/>
<circle display="none" fill="#FFFFFF" cx="-465" cy="817" r="3"/>
<circle display="none" cx="-432.1" cy="817" r="4.7"/>
<circle display="none" fill="#FFFFFF" cx="-432.1" cy="817" r="3"/>
<path display="none" fill="#F26C27" d="M-452.3,866.599c0,4.701-3.801,8.4-8.4,8.4h-17.9c-4.699,0-8.399-3.799-8.399-8.4v-6
	c0-4.699,3.8-8.398,8.399-8.398h17.9c4.7,0,8.4,3.799,8.4,8.398V866.599L-452.3,866.599z"/>
<path display="none" fill="#B14B29" d="M-409.8,866.599c0,4.701-3.801,8.4-8.4,8.4h-17.9c-4.699,0-8.399-3.799-8.399-8.4v-6
	c0-4.699,3.8-8.398,8.399-8.398h17.9c4.7,0,8.4,3.799,8.4,8.398V866.599z"/>
<path display="none" fill="#732B1F" d="M-381.2,889.9h-13c0-9.801,0-19.6,0-29.4c4.3,0,8.6,0,13,0
	C-381.2,870.201-381.2,880.099-381.2,889.9z"/>
<path display="none" fill="#732B1F" d="M-357.2,889.9h-13c0-9.9,0-19.5,0-29.4c4.3,0,8.7,0,13,0
	C-357.2,870.201-357.2,880.099-357.2,889.9z"/>
<path display="none" fill="#FD9426" d="M-469.6,852.201h-9c-4.699,0-8.399,3.799-8.399,8.398v6c0,4.701,3.8,8.4,8.399,8.4h9V852.201
	L-469.6,852.201z"/>
<path display="none" fill="#FD9426" d="M-427.2,852.201h-9c-4.7,0-8.4,3.799-8.4,8.398v6c0,4.701,3.801,8.4,8.4,8.4h9V852.201z"/>
<path display="none" fill="#B14B29" d="M-437.8,789.201c-2.5-0.801-5.101-1.201-7.9-1.4v21.4h7.9V789.201z"/>
<path display="none" fill="#732B1F" d="M-459.1,789.201v20h7.9v-21.4C-454,788-456.6,788.5-459.1,789.201z"/>
<path display="none" fill="#732B1F" d="M-422.9,852.201h4.7c5,0.199,8.4,4.1,8.4,8.299c12.399,0,31,0,44.199,0
	c-2.899-17-22.1-30.5-45.8-31C-412.4,838.701-417,846.5-422.9,852.201z"/>
</svg>
