<?xml version="1.0" encoding="utf-8"?>
<!-- Generator: Adobe Illustrator 16.0.0, SVG Export Plug-In . SVG Version: 6.00 Build 0)  -->
<!DOCTYPE svg PUBLIC "-//W3C//DTD SVG 1.1//EN" "http://www.w3.org/Graphics/SVG/1.1/DTD/svg11.dtd">
<svg version="1.1" id="Layer_1" xmlns="http://www.w3.org/2000/svg" xmlns:xlink="http://www.w3.org/1999/xlink" x="0px" y="0px"
	 width="59.4px" height="47.7px" viewBox="0 0 59.4 47.7" enable-background="new 0 0 59.4 47.7" xml:space="preserve">
<path fill="#FD9426" d="M41.3,29.4c0-2.6,2.101-4.699,4.7-4.699c1.3,0,2.4,0.5,3.3,1.299L59.4,14.8C52.6,5.8,41.8,0,29.7,0
	S6.8,5.8,0,14.8l10,11.1c0.8-0.699,1.9-1.199,3.101-1.199c2.6,0,4.699,2.1,4.699,4.699c0,1.4-0.6,2.6-1.5,3.4l13.4,14.9L43,33
	C42,32.099,41.3,30.8,41.3,29.4z"/>
<path fill="#B14B29" d="M40.3,1.599C37.8,0.8,35.2,0.4,32.4,0.201v21.398H40.3V1.599z"/>
<path fill="#732B1F" d="M19,1.599v20h7.9V0.201C24.1,0.4,21.5,0.9,19,1.599z"/>
</svg>
