<?xml version="1.0" encoding="utf-8"?>
<!-- Generator: Adobe Illustrator 16.0.0, SVG Export Plug-In . SVG Version: 6.00 Build 0)  -->
<!DOCTYPE svg PUBLIC "-//W3C//DTD SVG 1.1//EN" "http://www.w3.org/Graphics/SVG/1.1/DTD/svg11.dtd">
<svg version="1.1" id="Layer_1" xmlns="http://www.w3.org/2000/svg" xmlns:xlink="http://www.w3.org/1999/xlink" x="0px" y="0px"
	 width="189.7px" height="118.4px" viewBox="0 0 189.7 118.4" enable-background="new 0 0 189.7 118.4" xml:space="preserve">
<path fill="#E96729" d="M46.35,25.537c0,0,10.9-25.6,63.901-25.6c53,0,79.399,37.6,79.399,72.399s-13.399,46-30.2,46
	c-16.8,0-92.8,0-92.8,0s-15.8,2.101-15.8-10.8s12.9-13.1,12.9-13.1l-4.7-21.101L46.35,25.537z"/>
<path fill="#732B1F" d="M133.85,2.636v46.2h13v-41.8C142.75,5.337,138.45,3.837,133.85,2.636z"/>
<path fill="#732B1F" d="M110.25-0.063c-0.9,0-1.9,0-2.801,0v40.1h13v-39.6C117.15,0.037,113.75-0.063,110.25-0.063z"/>
<path fill="#B14B29" d="M57.55,42.237c0,0,27.5-12.9,59.8-12.9c26.8,0,40.1,19,40.1,36.5s-6.699,23.2-15.3,23.2
	c-8.5,0-74.4,0-74.4,0s-8,1.1-8-5.4s6.5-6.6,6.5-6.6l-2.4-10.6L57.55,42.237z"/>
<g>
	<polygon fill="#732B1F" points="9.15,47.937 36.95,36.037 0.05,18.937 	"/>
	<polygon fill="#732B1F" points="48.25,36.037 76.15,47.937 85.15,18.937 	"/>
</g>
<circle fill="#B14B29" cx="42.65" cy="53.437" r="37.3"/>
<path fill="#F26C27" d="M79.95,53.337c0-20.6-16.7-37.3-37.4-37.3v74.7C63.25,90.737,79.95,74.037,79.95,53.337z"/>
<path fill="#FD9426" d="M42.65,63.737l29.7-32.9c-6.8-9-17.6-14.8-29.7-14.8s-22.9,5.8-29.7,14.8L42.65,63.737z"/>
<polygon fill="#732B1F" points="53.15,53.437 42.55,65.237 31.85,53.437 "/>
<circle cx="26.05" cy="45.437" r="4.7"/>
<circle fill="#FFFFFF" cx="26.05" cy="45.437" r="3"/>
<circle cx="58.95" cy="45.437" r="4.7"/>
<circle fill="#FFFFFF" cx="58.95" cy="45.437" r="3"/>
<path fill="#F26C27" d="M38.75,95.037c0,4.7-3.8,8.4-8.4,8.4h-17.9c-4.7,0-8.4-3.801-8.4-8.4v-6c0-4.7,3.8-8.4,8.4-8.4h17.9
	c4.7,0,8.4,3.801,8.4,8.4V95.037L38.75,95.037z"/>
<path fill="#B14B29" d="M81.25,95.037c0,4.7-3.8,8.4-8.4,8.4h-17.9c-4.7,0-8.4-3.801-8.4-8.4v-6c0-4.7,3.8-8.4,8.4-8.4h17.9
	c4.7,0,8.4,3.801,8.4,8.4V95.037z"/>
<path fill="#732B1F" d="M109.85,118.337h-13c0-9.8,0-19.5,0-29.3c4.3,0,8.6,0,13,0C109.85,98.636,109.85,108.537,109.85,118.337z"/>
<path fill="#732B1F" d="M133.85,118.337h-13c0-9.899,0-19.399,0-29.3c4.3,0,8.699,0,13,0
	C133.85,98.636,133.85,108.537,133.85,118.337z"/>
<path fill="#FD9426" d="M21.45,80.636h-9c-4.7,0-8.4,3.801-8.4,8.4v6c0,4.7,3.8,8.4,8.4,8.4h9V80.636L21.45,80.636z"/>
<path fill="#FD9426" d="M63.85,80.636h-9c-4.7,0-8.4,3.801-8.4,8.4v6c0,4.7,3.8,8.4,8.4,8.4h9V80.636z"/>
<path fill="#B14B29" d="M53.25,17.636c-2.5-0.8-5.1-1.199-7.9-1.399v21.399h7.9V17.636z"/>
<path fill="#732B1F" d="M31.95,17.636v20h7.9V16.237C37.05,16.437,34.45,16.937,31.95,17.636z"/>
<path fill="#732B1F" d="M68.15,80.636h4.7c5,0.2,8.5,4.2,8.5,8.4c12.4,0,30.901,0,44.1,0c-2.9-17-22.1-30.6-45.8-31.1
	C78.65,67.136,74.05,74.937,68.15,80.636z"/>
</svg>
