<?xml version="1.0" encoding="utf-8"?>
<!-- Generator: Adobe Illustrator 19.1.0, SVG Export Plug-In . SVG Version: 6.00 Build 0)  -->
<svg version="1.2" baseProfile="tiny" id="Layer_1" xmlns="http://www.w3.org/2000/svg" xmlns:xlink="http://www.w3.org/1999/xlink"
	 x="0px" y="0px" width="44.902px" height="43.945px" viewBox="0 0 44.902 43.945" xml:space="preserve">
<g>
	<path fill="#FF5B49" d="M0.034,12.526c9.91,0.715,13.291,6.792,16.667,13.497c2.878,5.716,2.691,13.466,2.697,17.392l0.001,0.485
		l13.164-0.027l-0.001-0.472c-0.004-4.459,2.557-13.814-1.333-21.54c-2.267-4.502-7.514-7.61-11.685-10.293
		c-4.78-3.075-7.21-5.44-19.526-5.407L0.034,12.526z"/>
	<path fill="#FF9926" d="M0,0l0.017,6.232c12.098-0.032,19.76,4.633,26.108,13.716c6.293,9.005,5.2,20.923,5.208,23.997l13.57-0.034
		c-0.01-3.658-0.681-14.374-7.136-25.778C30.594,5.46,18.576-0.049,0,0z"/>
</g>
</svg>
