<?xml version="1.0" encoding="utf-8"?>
<!-- Generator: Adobe Illustrator 19.1.0, SVG Export Plug-In . SVG Version: 6.00 Build 0)  -->
<svg version="1.2" baseProfile="tiny" id="Layer_1" xmlns="http://www.w3.org/2000/svg" xmlns:xlink="http://www.w3.org/1999/xlink"
	 x="0px" y="0px" width="48.108px" height="55.701px" viewBox="0 0 48.108 55.701" xml:space="preserve">
<path fill="#D54243" d="M20.258,22.134V0C9.258,0,0,9.081,0,20.282c0,0.625,0.062,1.241,0.118,1.852H20.258z"/>
<path fill="#FF9926" d="M20.258,0v22.134h13.334c0.054-2.555,2.134-4.613,4.702-4.613c2.603,0,4.712,2.11,4.712,4.712
	c0,1.717-0.927,3.204-2.299,4.028c-1.444,12.612-9.386,23.438-20.449,28.846v0.594c15,0,27.851-12.469,27.851-27.851
	C48.108,12.469,35.258,0,20.258,0z"/>
</svg>
