<?xml version="1.0" encoding="utf-8"?>
<!-- Generator: Adobe Illustrator 19.1.0, SVG Export Plug-In . SVG Version: 6.00 Build 0)  -->
<svg version="1.2" baseProfile="tiny" id="Layer_1" xmlns="http://www.w3.org/2000/svg" xmlns:xlink="http://www.w3.org/1999/xlink"
	 x="0px" y="0px" width="37.821px" height="11.56px" viewBox="0 0 37.821 11.56" xml:space="preserve">
	 <path fill-rule="evenodd"
        d="M25.545,5.78c0,3.192 -2.588,5.78 -5.78,5.78h-13.985c-3.192,0 -5.78,-2.588 -5.78,-5.78l0,0c0,-3.192 2.588,-5.78 5.78,-5.78h13.985C22.957,-0.001 25.545,2.587 25.545,5.78L25.545,5.78z"
        fill="#D54243"/>
    <path fill-rule="evenodd"
        d="M37.821,5.78c0,3.192 -2.588,5.78 -5.78,5.78L18.056,11.56c-3.192,0 -5.78,-2.588 -5.78,-5.78l0,0c0,-3.192 2.588,-5.78 5.78,-5.78h13.985C35.233,-0.001 37.821,2.587 37.821,5.78L37.821,5.78z"
        fill="#FF5B49"/>
</svg>
