<?xml version="1.0" encoding="utf-8"?>
<!-- Generator: Adobe Illustrator 19.1.0, SVG Export Plug-In . SVG Version: 6.00 Build 0)  -->
<svg version="1.2" baseProfile="tiny" id="Layer_1" xmlns="http://www.w3.org/2000/svg" xmlns:xlink="http://www.w3.org/1999/xlink"
	 x="0px" y="0px" width="164.127px" height="118.869px" viewBox="0 0 164.127 118.869" xml:space="preserve">
<g>
	<path fill="#FF9926" d="M50.624,30.402c0,3.707-3.005,6.713-6.713,6.713h-0.165c-3.707,0-6.713-3.005-6.713-6.713V11.747
		c0-3.707,3.005-6.713,6.713-6.713h0.165c3.707,0,6.713,3.005,6.713,6.713V30.402z"/>
	<path fill="#D54243" d="M57.316,53.43V12.866c-11.201,0-20.282,9.081-20.282,20.282C37.034,44.349,46.114,53.43,57.316,53.43z"/>
	<rect x="61.252" y="77.661" fill="#FF5B49" width="12.306" height="35.428"/>
	<path fill="#D54243" d="M73.559,113.089c0,3.192-2.588,5.78-5.78,5.78H53.794c-3.192,0-5.78-2.588-5.78-5.78l0,0
		c0-3.192,2.588-5.78,5.78-5.78h13.985C70.971,107.308,73.559,109.896,73.559,113.089L73.559,113.089z"/>
	<rect x="73.528" y="77.661" fill="#FF9926" width="12.306" height="35.428"/>
	<path fill="#FF5B49" d="M85.835,113.089c0,3.192-2.588,5.78-5.78,5.78H66.07c-3.192,0-5.78-2.588-5.78-5.78l0,0
		c0-3.192,2.588-5.78,5.78-5.78h13.985C83.247,107.308,85.835,109.896,85.835,113.089L85.835,113.089z"/>
	<rect x="124.09" y="77.661" fill="#FF5B49" width="12.306" height="35.428"/>
	<path fill="#D54243" d="M136.396,113.089c0,3.192-2.588,5.78-5.78,5.78h-13.985c-3.192,0-5.78-2.588-5.78-5.78l0,0
		c0-3.192,2.588-5.78,5.78-5.78h13.985C133.809,107.308,136.396,109.896,136.396,113.089L136.396,113.089z"/>
	<rect x="136.395" y="74.818" fill="#FF9926" width="12.306" height="38.271"/>
	<path fill="#FF5B49" d="M148.701,113.089c0,3.192-2.588,5.78-5.78,5.78h-13.985c-3.192,0-5.78-2.588-5.78-5.78l0,0
		c0-3.192,2.588-5.78,5.78-5.78h13.985C146.113,107.308,148.701,109.896,148.701,113.089L148.701,113.089z"/>
	<path fill="#D54243" d="M41.447,52.302c6.63,25.827,31.575,45.03,61.34,45.03c29.765,0,54.71-19.203,61.34-45.03H41.447z"/>
	<path fill="#FF5B49" d="M66.952,52.302c5.989,12.326,19.795,20.977,35.835,20.977c16.04,0,29.845-8.651,35.835-20.977H66.952z"/>
	<path fill="#D54243" d="M81.421,29.348c0,4.289-3.477,7.766-7.766,7.766h-0.191c-4.289,0-7.766-3.477-7.766-7.766V7.766
		C65.697,3.477,69.174,0,73.463,0h0.191c4.289,0,7.766,3.477,7.766,7.766V29.348z"/>
	<path fill="#FF9926" d="M57.316,12.866v55.701c15.382,0,27.851-12.469,27.851-27.851S72.697,12.866,57.316,12.866z"/>
	<path fill="#FF5B49" d="M77.975,35.099H4.653c0,20.247,16.414,36.661,36.661,36.661S77.975,55.347,77.975,35.099z"/>
	<circle cx="75.303" cy="35.099" r="4.712"/>
	<circle fill="#3D3D3D" cx="7.831" cy="31.885" r="7.831"/>
	<path fill="#FF5B49" d="M119.258,20.928c9.91,0.715,13.291,6.792,16.667,13.497c2.878,5.716,2.691,13.466,2.697,17.392l0.001,0.485
		l13.164-0.027l-0.001-0.472c-0.004-4.459,2.557-13.814-1.333-21.54c-2.267-4.502-7.514-7.61-11.685-10.293
		c-4.78-3.075-7.21-5.44-19.526-5.407L119.258,20.928z"/>
	<path fill="#FF9926" d="M119.224,8.402l0.017,6.232c12.098-0.032,19.76,4.633,26.108,13.716c6.293,9.005,5.2,20.923,5.208,23.997
		l13.57-0.034c-0.01-3.658-0.681-14.374-7.136-25.778C149.819,13.861,137.801,8.352,119.224,8.402z"/>
	<circle fill="#FFFFFF" cx="75.303" cy="35.099" r="3.174"/>
</g>
</svg>
