<?xml version="1.0" encoding="utf-8"?>
<!-- Generator: Adobe Illustrator 16.0.0, SVG Export Plug-In . SVG Version: 6.00 Build 0)  -->
<!DOCTYPE svg PUBLIC "-//W3C//DTD SVG 1.1//EN" "http://www.w3.org/Graphics/SVG/1.1/DTD/svg11.dtd">
<svg version="1.1" id="Layer_1" xmlns="http://www.w3.org/2000/svg" xmlns:xlink="http://www.w3.org/1999/xlink" x="0px" y="0px"
	 width="30.4px" height="31.1px" viewBox="0 0 30.4 31.1" enable-background="new 0 0 30.4 31.1" xml:space="preserve">
<g>
	<path fill="#A97DD9" d="M8.701,0c0.5,6.9,4.7,9.2,9.3,11.5c4,2,9.3,1.9,12,1.9h0.4v9.1h-0.4c-3.1,0-9.6,1.8-14.899-0.899
		C12.001,20,9.801,16.401,8.001,13.5c-2.1-3.3-3.8-5-3.7-13.5H8.701z"/>
	<path fill="#4E3654" d="M0.001,0h4.3c0,8.4,3.2,13.7,9.5,18.101c6.2,4.399,14.5,3.6,16.601,3.6v9.4c-2.5,0-10-0.5-17.9-4.9
		C3.701,21.2-0.099,12.901,0.001,0z"/>
</g>
</svg>
