<?xml version="1.0" encoding="utf-8"?>
<!-- Generator: Adobe Illustrator 16.0.0, SVG Export Plug-In . SVG Version: 6.00 Build 0)  -->
<!DOCTYPE svg PUBLIC "-//W3C//DTD SVG 1.1//EN" "http://www.w3.org/Graphics/SVG/1.1/DTD/svg11.dtd">
<svg version="1.1" id="Layer_1" xmlns="http://www.w3.org/2000/svg" xmlns:xlink="http://www.w3.org/1999/xlink" x="0px" y="0px"
	 width="96.4px" height="58.7px" viewBox="0 0 96.4 58.7" enable-background="new 0 0 96.4 58.7" xml:space="preserve">
<path fill="#715077" d="M96.3,58.65c-20-0.5-31.799-9.6-38.799-20.4c-4.701,2.1-9.8,3.201-14.901,3.201H42.7H42.6l0,0l0,0l0,0l0,0
	l0,0h-0.1h0.1c-9.5,0-18.899-3.602-26.199-10.801C9.2,23.451,5.6,13.951,5.6,4.451c0-1.5,0.101-3,0.301-4.4
	C4.2,0.75,2.3,1.75,0.1,2.849V58.05v0.6l0,0H96.3L96.3,58.65z"/>
</svg>
