<?xml version="1.0" encoding="utf-8"?>
<!-- Generator: Adobe Illustrator 16.0.0, SVG Export Plug-In . SVG Version: 6.00 Build 0)  -->
<!DOCTYPE svg PUBLIC "-//W3C//DTD SVG 1.1//EN" "http://www.w3.org/Graphics/SVG/1.1/DTD/svg11.dtd">
<svg version="1.1" id="Layer_1" xmlns="http://www.w3.org/2000/svg" xmlns:xlink="http://www.w3.org/1999/xlink" x="0px" y="0px"
	 width="118.3px" height="10.3px" viewBox="0 0 118.3 10.3" enable-background="new 0 0 118.3 10.3" xml:space="preserve">
<path fill="#7B73BD" d="M61.55,5.152c0,2.799,2.5,5.1,5.5,5.1h45.699c3.1,0,5.5-2.301,5.5-5.1l0,0c0-2.801-2.5-5.1-5.5-5.1H67.05
	C64.05-0.049,61.55,2.251,61.55,5.152L61.55,5.152z"/>
<path fill="#433745" d="M0.05,5.152c0,2.799,2.3,5.1,5.1,5.1h61.4c2.799,0,5.1-2.301,5.1-5.1l0,0c0-2.801-2.301-5.1-5.1-5.1H5.15
	C2.35-0.049,0.05,2.251,0.05,5.152L0.05,5.152z"/>
</svg>
