<?xml version="1.0" encoding="utf-8"?>
<!-- Generator: Adobe Illustrator 16.0.0, SVG Export Plug-In . SVG Version: 6.00 Build 0)  -->
<!DOCTYPE svg PUBLIC "-//W3C//DTD SVG 1.1//EN" "http://www.w3.org/Graphics/SVG/1.1/DTD/svg11.dtd">
<svg version="1.1" id="Layer_1" xmlns="http://www.w3.org/2000/svg" xmlns:xlink="http://www.w3.org/1999/xlink" x="0px" y="0px"
	 width="39px" height="44.2px" viewBox="0 0 39 44.2" enable-background="new 0 0 39 44.2" xml:space="preserve">
<g>
	<path fill="#433745" d="M24.351,44.2c3.1-1.199,5.8-2.898,8.1-5.199l-13.4-13.4C19.75,33.401,21.65,39.5,24.351,44.2z"/>
	<path fill="#4F4083" d="M32.351,6.7C28.25,2.6,22.45,0,16.15,0S4.15,2.6-0.05,6.7l14,14h4.4L32.351,6.7z"/>
	<path fill="#7B73BD" d="M18.65,20.7c0.1,1.701,0.2,3.4,0.3,5l13.4,13.4c4.1-4.1,6.7-9.9,6.7-16.199c0-6.301-2.601-12-6.7-16.201
		l-14,14H18.65L18.65,20.7z"/>
</g>
</svg>
