<?xml version="1.0" encoding="utf-8"?>
<!-- Generator: Adobe Illustrator 16.0.0, SVG Export Plug-In . SVG Version: 6.00 Build 0)  -->
<!DOCTYPE svg PUBLIC "-//W3C//DTD SVG 1.1//EN" "http://www.w3.org/Graphics/SVG/1.1/DTD/svg11.dtd">
<svg version="1.1" id="Layer_1" xmlns="http://www.w3.org/2000/svg" xmlns:xlink="http://www.w3.org/1999/xlink" x="0px" y="0px"
	 width="52px" height="37px" viewBox="0 0 52 37" enable-background="new 0 0 52 37" xml:space="preserve">
<path fill="#9A7998" d="M0,0c0,9.5,3.6,19,10.8,26.2S27.5,37,37,37V0H0z"/>
<path fill="#4F4083" d="M37,21.9V37c5.1,0,10.199-1.1,15-3.2c-2.9-4.399-4.9-9.1-6.4-13.699C43,21.3,40.1,21.9,37,21.9z"/>
<path fill="#4E3654" d="M42,0h-5H15.099c0,12.101,9.8,21.9,21.901,21.9c3.1,0,6-0.601,8.6-1.8C43,11.9,42.199,4.3,42,0z"/>
</svg>
